<svg width="390.9375" height="252.375" viewBox="300 50 2085 1346" fill="none" xmlns="http://www.w3.org/2000/svg">
<g clip-path="url(#clip0_1_2)">
<rect width="2085" height="1346" fill="transparent" fill-opacity="0"/>
<circle cx="1040.5" cy="655.5" r="596.5" fill="#4480FC"/>
<circle cx="1040.5" cy="655.5" r="596.5" fill="#4480FC"/>
<circle cx="1040" cy="656" r="552" fill="#2D763B"/>
<circle cx="1040" cy="656" r="552" fill="#4480FC"/>
<circle cx="1040" cy="656" r="552" stroke="white" stroke-width="20"/>
<rect x="584" y="426.129" width="726.611" height="231.574" rx="50" transform="rotate(-17.387 584 426.129)" fill="#F3F594"/>
<rect x="671.266" y="446.875" width="45.431" height="76.9441" rx="15" transform="rotate(-17.39 671.266 446.875)" fill="#F3F594" stroke="#4480FC" stroke-width="10"/>
<rect x="745.266" y="421.844" width="45.431" height="76.9441" rx="15" transform="rotate(-17.39 745.266 421.844)" fill="#F3F594" stroke="#4480FC" stroke-width="10"/>
<rect x="823.266" y="396.875" width="45.431" height="76.9441" rx="15" transform="rotate(-17.39 823.266 396.875)" fill="#F3F594" stroke="#4480FC" stroke-width="10"/>
<rect x="899.266" y="371.844" width="45.431" height="76.9441" rx="15" transform="rotate(-17.39 899.266 371.844)" fill="#F3F594" stroke="#4480FC" stroke-width="10"/>
<rect x="978.266" y="347.41" width="100.86" height="163.461" rx="15" transform="rotate(-17.39 978.266 347.41)" fill="#F3F594" stroke="#4480FC" stroke-width="10"/>
<circle cx="792.5" cy="579.5" r="56.5" fill="#F3F594" stroke="#4480FC" stroke-width="10"/>
<path d="M812.007 573.619C814.929 582.782 814.959 591.681 812.89 598.578C810.814 605.503 806.836 609.906 802.027 611.44C797.217 612.974 791.424 611.686 785.722 607.242C780.043 602.816 774.915 595.543 771.993 586.381C769.071 577.218 769.041 568.319 771.11 561.422C773.186 554.497 777.164 550.094 781.973 548.56C786.783 547.026 792.576 548.314 798.278 552.758C803.957 557.184 809.085 564.457 812.007 573.619Z" fill="white" stroke="#4480FC" stroke-width="10"/>
<circle cx="1245.5" cy="449.5" r="56.5" fill="#F3F594" stroke="#4480FC" stroke-width="10"/>
<path d="M1264.95 443.444C1267.95 452.581 1268.06 461.479 1266.05 468.394C1264.04 475.337 1260.1 479.775 1255.3 481.351C1250.51 482.927 1244.7 481.69 1238.96 477.296C1233.24 472.92 1228.05 465.692 1225.05 456.556C1222.05 447.419 1221.94 438.521 1223.95 431.606C1225.96 424.663 1229.9 420.225 1234.7 418.649C1239.49 417.073 1245.3 418.31 1251.04 422.704C1256.76 427.08 1261.95 434.308 1264.95 443.444Z" fill="white" stroke="#4480FC" stroke-width="10"/>
<path d="M546.702 659.996L579.367 675.893L604.579 649.741L599.554 685.718L632.218 701.616L596.448 707.954L591.423 743.932L574.341 711.871L538.571 718.21L563.784 692.057L546.702 659.996Z" fill="#F3F594"/>
<path d="M685.423 281.427L714.832 302.752L744.202 281.372L733.009 315.932L762.418 337.256L726.091 337.291L714.898 371.85L703.639 337.312L667.312 337.346L696.681 315.966L685.423 281.427Z" fill="#F3F594"/>
<path d="M885.385 183.959L907.051 213.118L941.478 201.523L920.441 231.139L942.107 260.298L907.439 249.443L886.403 279.059L886.014 242.734L851.347 231.879L885.774 220.284L885.385 183.959Z" fill="#F3F594"/>
<path d="M1060.96 155.148L1078.96 186.7L1114.53 179.327L1090.09 206.2L1108.09 237.751L1074.98 222.808L1050.54 249.681L1054.52 213.573L1021.41 198.629L1056.98 191.256L1060.96 155.148Z" fill="#F3F594"/>
<path d="M1422.91 373.984L1436.18 407.802L1472.44 405.634L1444.38 428.702L1457.65 462.52L1427.04 442.96L1398.97 466.028L1408.12 430.871L1377.5 411.31L1413.77 409.142L1422.91 373.984Z" fill="#F3F594"/>
<path d="M477.838 1015.78C472.762 1008.74 467.635 1004.47 462.458 1002.96C457.444 1001.13 451.012 1001.45 443.16 1003.91L431.382 1007.6L427.805 996.174L551.651 957.387L555.228 968.808L537.383 974.397C534.052 975.44 531.494 977.286 529.711 979.935C527.853 982.346 527.297 984.741 528.042 987.12C528.862 989.737 530.158 992.206 531.929 994.525L631.81 1128.24L632.949 987.969C633.093 980.086 632.382 973.646 630.817 968.649C629.178 963.414 625.985 959.058 621.238 955.581C616.491 952.103 610.786 951.408 604.124 953.494L586.279 959.083L582.702 947.662L679.066 917.482L682.643 928.903L671.579 932.368C655.637 937.361 647.607 951.764 647.488 975.577L645.028 1214.24L630.038 1218.93L477.838 1015.78ZM823.794 1155.9C810.945 1159.92 797.737 1159.88 784.169 1155.77C770.527 1151.42 758.251 1143.51 747.341 1132.03C736.432 1120.55 728.369 1106.49 723.152 1089.83C717.936 1073.18 716.535 1057.03 718.95 1041.38C721.364 1025.73 726.971 1012.35 735.769 1001.23C744.493 989.874 755.279 982.185 768.128 978.161C780.977 974.137 794.222 974.3 807.864 978.649C821.432 982.761 833.67 990.555 844.58 1002.03C855.49 1013.51 863.553 1027.57 868.77 1044.23C873.986 1060.88 875.387 1077.04 872.972 1092.68C870.558 1108.33 864.988 1121.83 856.264 1133.19C847.466 1144.31 836.642 1151.88 823.794 1155.9ZM821.111 1147.33C831.342 1144.13 836.387 1135.63 836.244 1121.82C836.34 1107.95 831.953 1086.85 823.086 1058.54C814.218 1030.22 805.787 1010.39 797.792 999.048C790.036 987.629 781.042 983.522 770.811 986.727C760.579 989.931 755.416 998.472 755.321 1012.35C755.463 1026.15 759.968 1047.21 768.836 1075.53C777.704 1103.84 786.016 1123.71 793.773 1135.12C801.767 1146.47 810.88 1150.54 821.111 1147.33ZM992.855 1191.52C983.1 1194.58 974.279 1193.95 966.393 1189.62C958.582 1185.54 953.186 1178.74 950.205 1169.22C947.746 1161.37 948.083 1153.68 951.217 1146.17C954.351 1138.66 959.724 1133.71 967.338 1131.32C973.049 1129.53 978.21 1129.75 982.823 1131.96C987.747 1134.34 990.992 1138.02 992.557 1143.02C993.526 1146.11 993.706 1149.19 993.098 1152.26C992.728 1155.25 991.852 1157.87 990.471 1160.13C988.034 1164.03 987.337 1167.65 988.38 1170.98C989.051 1173.12 990.242 1174.84 991.953 1176.13C993.977 1177.59 996.416 1177.87 999.272 1176.97C1003.32 1175.71 1005.87 1172.16 1006.92 1166.35C1008.21 1160.46 1008.85 1153.33 1008.85 1144.97L1008.33 1102.03L900.306 973.604C894.516 966.795 889.746 962.411 885.997 960.45C882.411 958.176 877.644 957.971 871.695 959.834L866.342 961.51L863.659 952.945L951.101 925.559L953.783 934.125L943.433 937.366C941.292 938.037 939.53 939.503 938.148 941.765C937.004 943.952 936.879 946.473 937.774 949.328C938.593 951.946 940.469 955.016 943.402 958.539L1007.77 1035.18L1006.49 949.754C1006.07 942.57 1005.26 937.075 1004.07 933.268C1002.95 929.699 1001.03 926.903 998.31 924.882C995.513 922.623 992.329 922.053 988.76 923.17L979.481 926.077L976.798 917.511L1035.69 899.067L1038.37 907.633L1030.52 910.092C1026.24 911.434 1022.67 914.641 1019.81 919.715C1017.13 924.476 1015.87 930.88 1016.03 938.927L1018.23 1136.15C1018.92 1167.55 1010.46 1186.01 992.855 1191.52ZM1150.8 1053.48C1137.72 1057.58 1125.53 1057.87 1114.24 1054.36C1103.18 1050.76 1095.27 1041.35 1090.5 1026.12C1085.66 1010.66 1087.45 996.772 1095.87 984.466C1104.46 971.848 1116.51 959.844 1132.02 948.456L1155.52 930.905L1147.92 906.635C1144.12 894.5 1138.87 886.479 1132.16 882.572C1125.44 878.664 1118.16 877.94 1110.31 880.399C1103.65 882.485 1098.3 885.858 1094.28 890.516C1090.41 894.861 1089.3 899.651 1090.94 904.886C1091.39 906.314 1092.3 907.986 1093.69 909.904C1095.23 911.51 1097.3 912.691 1099.89 913.448C1104.13 914.472 1107.34 915.949 1109.51 917.882C1111.92 919.739 1113.72 922.572 1114.91 926.379C1116.7 932.089 1115.98 937.281 1112.74 941.953C1109.66 946.313 1105.62 949.276 1100.63 950.841C1094.44 952.778 1088.45 952.432 1082.67 949.803C1077.04 946.862 1073 941.465 1070.54 933.613C1067.71 924.572 1067.95 915.744 1071.26 907.13C1074.5 898.278 1079.84 890.726 1087.29 884.474C1094.66 877.984 1102.75 873.361 1111.55 870.603C1128.69 865.238 1145.13 865.183 1160.88 870.439C1176.56 875.456 1187.53 887.958 1193.79 907.945L1222.07 998.242C1224.76 1006.81 1228.48 1010.35 1233.24 1008.86C1237.52 1007.51 1239.61 1002.94 1239.52 995.13C1239.43 987.321 1237.92 978.777 1235.02 969.497L1245.01 966.368C1250.45 983.737 1251.82 997.286 1249.12 1007.02C1247.84 1012.12 1245.24 1016.72 1241.3 1020.83C1237.36 1024.94 1232.3 1027.96 1226.11 1029.9C1216.35 1032.95 1208.53 1033.84 1202.64 1032.55C1196.67 1031.02 1190.95 1027.33 1185.45 1021.47L1184.74 1021.69C1179.25 1037.52 1167.93 1048.12 1150.8 1053.48ZM1163.82 1033.73C1173.1 1030.82 1178.72 1023.32 1180.67 1011.21L1158.54 940.541L1140.79 953.939C1133.83 959.253 1129.72 966.552 1128.44 975.834C1127.33 984.803 1128.86 995.951 1133.04 1009.28C1136.69 1020.93 1141.36 1028.35 1147.06 1031.53C1152.76 1034.71 1158.35 1035.44 1163.82 1033.73ZM1388 1067.77C1365.87 1074.7 1345.85 1076.66 1327.92 1073.65C1310.23 1070.57 1299.23 1062.13 1294.91 1048.33C1292.45 1040.48 1293.15 1032.29 1297.01 1023.76C1300.95 1015.47 1307.78 1008.5 1317.5 1002.84L1317.17 1001.77C1309.88 1003.53 1302.52 1002.57 1295.1 998.887C1287.67 995.202 1282.69 989.315 1280.16 981.226C1273.08 958.622 1282.05 940.529 1307.06 926.948L1306.61 925.521C1296.06 924.382 1285.92 920.767 1276.17 914.674C1266.66 908.508 1259.93 899.119 1255.98 886.508C1252.63 875.801 1252.59 865.233 1255.85 854.805C1259.36 844.301 1265.28 835.262 1273.62 827.686C1282.12 819.797 1292.08 814.064 1303.5 810.487C1323.01 804.377 1341.49 805.384 1358.93 813.509L1360 813.174C1363.5 798.491 1370.36 789.547 1380.59 786.343C1388.21 783.959 1395.14 784.4 1401.39 787.669C1407.56 790.699 1411.66 795.426 1413.67 801.851C1415.9 808.989 1415.82 815.809 1413.41 822.31C1411.25 828.737 1407.43 832.807 1401.95 834.521C1398.15 835.714 1394.48 835.686 1390.95 834.439C1387.35 832.954 1384.96 830.308 1383.77 826.501C1382.57 822.694 1383.14 817.815 1385.45 811.864C1386.43 809.989 1387.22 807.914 1387.81 805.638C1388.41 803.361 1388.48 801.51 1388.03 800.082C1386.84 796.275 1383.75 795.154 1378.75 796.719C1372.32 798.731 1367.82 805.628 1365.24 817.41C1375.46 823.353 1382.88 833.7 1387.51 848.453C1390.19 857.018 1390.1 866.322 1387.23 876.364C1384.29 886.168 1378.53 895.289 1369.94 903.728C1361.58 912.092 1350.86 918.324 1337.78 922.422C1323.26 926.968 1312.01 931.928 1304.03 937.303C1295.97 942.439 1293.13 948.814 1295.52 956.428C1298.13 964.756 1305.26 967.094 1316.92 963.443L1373.31 945.782C1390.2 940.491 1405.51 940.139 1419.22 944.727C1432.94 949.314 1442.33 959.698 1447.4 975.878C1451.13 987.774 1451.34 999.725 1448.05 1011.73C1444.83 1023.97 1438.12 1035.09 1427.92 1045.08C1417.72 1055.06 1404.42 1062.63 1388 1067.77ZM1336.41 913.053C1344.02 910.668 1348.34 905.266 1349.36 896.847C1350.31 888.189 1348.21 875.652 1343.07 859.234C1337.93 842.817 1332.54 831.441 1326.89 825.109C1321.18 818.538 1314.51 816.445 1306.9 818.83C1299.05 821.289 1294.53 826.884 1293.34 835.616C1292.32 844.035 1294.38 856.454 1299.53 872.871C1304.67 889.289 1310.1 900.783 1315.81 907.354C1321.69 913.612 1328.56 915.512 1336.41 913.053ZM1379.07 1058.02C1395.49 1052.88 1408.84 1045.04 1419.12 1034.51C1429.41 1023.97 1432.62 1012.51 1428.74 1000.14C1425.91 991.1 1418.86 986.121 1407.6 985.206C1396.42 984.529 1383.09 986.612 1367.63 991.456C1349.31 997.194 1333.8 1004.4 1321.1 1013.08C1308.48 1022 1304.07 1032.53 1307.87 1044.66C1311.15 1055.13 1319.71 1061.2 1333.56 1062.87C1347.72 1064.71 1362.89 1063.09 1379.07 1058.02ZM1559.29 925.551C1544.54 930.171 1530.1 930.381 1515.98 926.18C1502.03 921.667 1489.72 913.636 1479.04 902.085C1468.37 890.535 1460.5 876.67 1455.44 860.49C1450.22 843.834 1448.7 827.719 1450.88 812.145C1453.05 796.571 1458.42 783.262 1466.98 772.221C1475.71 760.866 1486.61 753.14 1499.7 749.041C1514.21 744.496 1528.34 745.818 1542.09 753.008C1555.76 759.961 1566.91 771.362 1575.53 787.212C1579.58 794.305 1584.14 805.941 1589.21 822.12L1502.13 849.394C1505.7 860.815 1508.77 869.783 1511.33 876.296C1513.82 882.571 1516.87 888.541 1520.47 894.206C1525.37 902.339 1531.61 908.091 1539.2 911.463C1547.03 914.76 1554.98 915.141 1563.07 912.608C1574.73 908.956 1582.53 900.897 1586.46 888.43C1590.4 875.964 1590.92 862.606 1588.02 848.359L1597.3 845.453C1601.02 862.317 1600.21 878.508 1594.88 894.025C1589.47 909.304 1577.61 919.813 1559.29 925.551ZM1544.68 825.093C1536.86 800.11 1529.41 782.192 1522.36 771.338C1515.46 760.172 1507.61 755.968 1498.81 758.725C1490.01 761.482 1485.84 769.45 1486.31 782.628C1486.94 795.493 1491.17 814.418 1499 839.401L1544.68 825.093Z" fill="#F3F594"/>
<path d="M477.838 1015.78L476.217 1016.95L476.227 1016.96L476.238 1016.98L477.838 1015.78ZM462.458 1002.96L461.774 1004.84L461.834 1004.86L461.897 1004.88L462.458 1002.96ZM431.382 1007.6L429.473 1008.19L430.071 1010.1L431.98 1009.5L431.382 1007.6ZM427.805 996.174L427.207 994.266L425.299 994.863L425.896 996.772L427.805 996.174ZM551.651 957.387L553.56 956.789L552.962 954.881L551.053 955.478L551.651 957.387ZM555.228 968.808L555.826 970.716L557.734 970.119L557.137 968.21L555.228 968.808ZM529.711 979.935L531.295 981.156L531.334 981.105L531.37 981.052L529.711 979.935ZM531.929 994.525L533.531 993.328L533.525 993.319L533.519 993.311L531.929 994.525ZM631.81 1128.24L630.208 1129.44L633.762 1134.19L633.81 1128.25L631.81 1128.24ZM632.949 987.969L630.949 987.932L630.949 987.942L630.949 987.953L632.949 987.969ZM586.279 959.083L584.37 959.681L584.968 961.589L586.876 960.992L586.279 959.083ZM582.702 947.662L582.104 945.754L580.195 946.351L580.793 948.26L582.702 947.662ZM679.066 917.482L680.975 916.884L680.377 914.975L678.469 915.573L679.066 917.482ZM682.643 928.903L683.241 930.811L685.15 930.214L684.552 928.305L682.643 928.903ZM647.488 975.577L649.488 975.598L649.488 975.587L647.488 975.577ZM645.028 1214.24L645.625 1216.15L647.012 1215.71L647.027 1214.26L645.028 1214.24ZM630.038 1218.93L628.437 1220.13L629.285 1221.27L630.635 1220.84L630.038 1218.93ZM479.46 1014.61C474.27 1007.42 468.814 1002.73 463.019 1001.04L461.897 1004.88C466.456 1006.21 471.254 1010.07 476.217 1016.95L479.46 1014.61ZM463.143 1001.08C457.546 999.039 450.619 999.475 442.562 1002L443.757 1005.82C451.404 1003.42 457.343 1003.22 461.774 1004.84L463.143 1001.08ZM442.562 1002L430.784 1005.69L431.98 1009.5L443.757 1005.82L442.562 1002ZM433.29 1007L429.713 995.576L425.896 996.772L429.473 1008.19L433.29 1007ZM428.403 998.083L552.249 959.295L551.053 955.478L427.207 994.266L428.403 998.083ZM549.742 957.985L553.319 969.406L557.137 968.21L553.56 956.789L549.742 957.985ZM554.63 966.899L536.785 972.488L537.98 976.305L555.826 970.716L554.63 966.899ZM536.785 972.488C533.064 973.654 530.113 975.757 528.052 978.818L531.37 981.052C532.876 978.816 535.04 977.226 537.98 976.305L536.785 972.488ZM528.127 978.714C525.97 981.513 525.149 984.575 526.134 987.718L529.951 986.522C529.445 984.906 529.736 983.178 531.295 981.156L528.127 978.714ZM526.134 987.718C527.028 990.571 528.436 993.246 530.34 995.739L533.519 993.311C531.879 991.165 530.697 988.903 529.951 986.522L526.134 987.718ZM530.327 995.722L630.208 1129.44L633.412 1127.04L533.531 993.328L530.327 995.722ZM633.81 1128.25L634.949 987.985L630.949 987.953L629.81 1128.22L633.81 1128.25ZM634.949 988.005C635.095 980.004 634.379 973.329 632.726 968.051L628.909 969.247C630.386 973.962 631.091 980.167 630.949 987.932L634.949 988.005ZM632.726 968.051C630.949 962.379 627.485 957.678 622.42 953.967L620.056 957.194C624.485 960.439 627.407 964.45 628.909 969.247L632.726 968.051ZM622.42 953.967C617.061 950.041 610.667 949.349 603.526 951.586L604.722 955.403C610.905 953.466 615.921 954.165 620.056 957.194L622.42 953.967ZM603.526 951.586L585.681 957.175L586.876 960.992L604.722 955.403L603.526 951.586ZM588.187 958.485L584.61 947.064L580.793 948.26L584.37 959.681L588.187 958.485ZM583.3 949.571L679.664 919.39L678.469 915.573L582.104 945.754L583.3 949.571ZM677.158 918.08L680.735 929.501L684.552 928.305L680.975 916.884L677.158 918.08ZM682.045 926.994L670.981 930.459L672.177 934.277L683.241 930.811L682.045 926.994ZM670.981 930.459C662.529 933.107 656.121 938.286 651.853 945.941C647.617 953.539 645.549 963.463 645.488 975.567L649.488 975.587C649.547 963.878 651.553 954.693 655.347 947.889C659.109 941.141 664.687 936.622 672.177 934.277L670.981 930.459ZM645.488 975.556L643.028 1214.22L647.027 1214.26L649.488 975.598L645.488 975.556ZM644.43 1212.33L629.44 1217.03L630.635 1220.84L645.625 1216.15L644.43 1212.33ZM631.638 1217.73L479.439 1014.58L476.238 1016.98L628.437 1220.13L631.638 1217.73ZM784.169 1155.77L783.562 1157.67L783.576 1157.68L783.589 1157.68L784.169 1155.77ZM747.341 1132.03L748.791 1130.65L748.791 1130.65L747.341 1132.03ZM718.95 1041.38L720.926 1041.68L720.926 1041.68L718.95 1041.38ZM735.769 1001.23L737.337 1002.47L737.346 1002.46L737.355 1002.45L735.769 1001.23ZM807.864 978.649L807.257 980.555L807.27 980.559L807.284 980.563L807.864 978.649ZM844.58 1002.03L846.03 1000.65L846.03 1000.65L844.58 1002.03ZM872.972 1092.68L874.949 1092.99L874.949 1092.99L872.972 1092.68ZM856.264 1133.19L857.833 1134.43L857.842 1134.42L857.85 1134.41L856.264 1133.19ZM836.244 1121.82L834.244 1121.81L834.244 1121.83L834.244 1121.84L836.244 1121.82ZM797.792 999.048L796.138 1000.17L796.148 1000.19L796.158 1000.2L797.792 999.048ZM755.321 1012.35L753.321 1012.34L753.321 1012.35L753.321 1012.37L755.321 1012.35ZM793.773 1135.12L792.118 1136.25L792.128 1136.26L792.138 1136.28L793.773 1135.12ZM823.196 1153.99C810.752 1157.89 797.954 1157.86 784.75 1153.85L783.589 1157.68C797.52 1161.9 811.139 1161.96 824.392 1157.81L823.196 1153.99ZM784.777 1153.86C771.488 1149.63 759.494 1141.91 748.791 1130.65L745.892 1133.41C757.009 1145.1 769.566 1153.21 783.562 1157.67L784.777 1153.86ZM748.791 1130.65C738.113 1119.42 730.195 1105.63 725.061 1089.24L721.244 1090.43C726.542 1107.35 734.751 1121.69 745.892 1133.41L748.791 1130.65ZM725.061 1089.24C719.926 1072.84 718.563 1057 720.926 1041.68L716.973 1041.07C714.507 1057.05 715.945 1073.51 721.244 1090.43L725.061 1089.24ZM720.926 1041.68C723.294 1026.33 728.778 1013.28 737.337 1002.47L734.201 999.987C725.163 1011.41 719.434 1025.12 716.973 1041.07L720.926 1041.68ZM737.355 1002.45C745.845 991.397 756.295 983.963 768.726 980.07L767.53 976.252C754.264 980.407 743.141 988.351 734.183 1000.01L737.355 1002.45ZM768.726 980.07C781.156 976.177 793.98 976.322 807.257 980.555L808.472 976.744C794.464 972.278 780.797 972.097 767.53 976.252L768.726 980.07ZM807.284 980.563C820.483 984.563 832.431 992.154 843.131 1003.41L846.03 1000.65C834.91 988.956 822.381 980.959 808.444 976.735L807.284 980.563ZM843.131 1003.41C853.809 1014.64 861.727 1028.43 866.861 1044.83L870.678 1043.63C865.38 1026.71 857.171 1012.37 846.03 1000.65L843.131 1003.41ZM866.861 1044.83C871.995 1061.22 873.359 1077.06 870.996 1092.38L874.949 1092.99C877.415 1077.01 875.976 1060.55 870.678 1043.63L866.861 1044.83ZM870.996 1092.38C868.627 1107.73 863.176 1120.91 854.678 1131.97L857.85 1134.41C866.8 1122.76 872.488 1108.93 874.949 1092.99L870.996 1092.38ZM854.696 1131.95C846.133 1142.77 835.641 1150.09 823.196 1153.99L824.392 1157.81C837.644 1153.66 848.799 1145.84 857.833 1134.43L854.696 1131.95ZM821.709 1149.24C827.252 1147.51 831.492 1144.29 834.288 1139.57C837.057 1134.91 838.318 1128.93 838.244 1121.8L834.244 1121.84C834.313 1128.52 833.123 1133.7 830.848 1137.53C828.599 1141.32 825.201 1143.96 820.513 1145.43L821.709 1149.24ZM838.244 1121.84C838.342 1107.63 833.87 1086.28 824.994 1057.94L821.177 1059.13C830.037 1087.42 834.337 1108.26 834.244 1121.81L838.244 1121.84ZM824.994 1057.94C816.118 1029.6 807.613 1009.51 799.427 997.896L796.158 1000.2C803.96 1011.27 812.317 1030.84 821.177 1059.13L824.994 1057.94ZM799.447 997.924C795.441 992.027 790.997 987.839 786.06 985.585C781.075 983.308 775.756 983.082 770.213 984.818L771.408 988.635C776.096 987.167 780.39 987.393 784.399 989.223C788.456 991.076 792.388 994.651 796.138 1000.17L799.447 997.924ZM770.213 984.818C764.669 986.554 760.407 989.781 757.553 994.501C754.726 999.177 753.37 1005.17 753.321 1012.34L757.321 1012.36C757.367 1005.65 758.64 1000.44 760.976 996.57C763.286 992.75 766.721 990.104 771.408 988.635L770.213 984.818ZM753.321 1012.37C753.466 1026.49 758.052 1047.79 766.927 1076.12L770.745 1074.93C761.884 1046.64 757.46 1025.82 757.32 1012.33L753.321 1012.37ZM766.927 1076.12C775.803 1104.46 784.185 1124.57 792.118 1136.25L795.427 1134C787.847 1122.84 779.605 1103.22 770.745 1074.93L766.927 1076.12ZM792.138 1136.28C796.265 1142.13 800.798 1146.28 805.787 1148.51C810.824 1150.76 816.165 1150.98 821.709 1149.24L820.513 1145.43C815.826 1146.89 811.495 1146.68 807.419 1144.86C803.295 1143.02 799.275 1139.46 795.407 1133.97L792.138 1136.28ZM966.393 1189.62L967.355 1187.87L967.338 1187.86L967.32 1187.85L966.393 1189.62ZM951.217 1146.17L949.371 1145.4L949.371 1145.4L951.217 1146.17ZM982.823 1131.96L983.692 1130.16L983.688 1130.16L982.823 1131.96ZM993.098 1152.26L991.137 1151.87L991.122 1151.94L991.114 1152.01L993.098 1152.26ZM990.471 1160.13L992.167 1161.19L992.172 1161.19L992.177 1161.18L990.471 1160.13ZM991.953 1176.13L990.748 1177.73L990.766 1177.74L990.785 1177.75L991.953 1176.13ZM1006.92 1166.35L1004.96 1165.92L1004.96 1165.96L1004.95 1165.99L1006.92 1166.35ZM1008.85 1144.97L1010.85 1144.97L1010.85 1144.96L1010.85 1144.95L1008.85 1144.97ZM1008.33 1102.03L1010.33 1102L1010.32 1101.29L1009.86 1100.74L1008.33 1102.03ZM900.306 973.604L901.837 972.317L901.83 972.308L900.306 973.604ZM885.997 960.45L884.926 962.139L884.996 962.183L885.07 962.222L885.997 960.45ZM866.342 961.51L864.433 962.108L865.031 964.017L866.939 963.419L866.342 961.51ZM863.659 952.945L863.061 951.036L861.152 951.634L861.75 953.543L863.659 952.945ZM951.101 925.559L953.009 924.961L952.411 923.053L950.503 923.65L951.101 925.559ZM953.783 934.125L954.381 936.033L956.29 935.435L955.692 933.527L953.783 934.125ZM938.148 941.765L936.441 940.722L936.407 940.779L936.376 940.838L938.148 941.765ZM943.402 958.539L941.865 959.819L941.87 959.826L943.402 958.539ZM1007.77 1035.18L1006.24 1036.47L1009.86 1040.77L1009.77 1035.15L1007.77 1035.18ZM1006.49 949.754L1008.49 949.724L1008.49 949.68L1008.49 949.637L1006.49 949.754ZM998.31 924.882L997.054 926.438L997.086 926.464L997.118 926.488L998.31 924.882ZM979.481 926.077L977.572 926.674L978.17 928.583L980.078 927.985L979.481 926.077ZM976.798 917.511L976.2 915.602L974.292 916.2L974.889 918.109L976.798 917.511ZM1035.69 899.067L1037.6 898.47L1037 896.561L1035.09 897.159L1035.69 899.067ZM1038.37 907.633L1038.97 909.542L1040.88 908.944L1040.28 907.035L1038.37 907.633ZM1019.81 919.715L1021.56 920.698L1021.56 920.695L1019.81 919.715ZM1016.03 938.927L1018.03 938.905L1018.03 938.895L1018.03 938.885L1016.03 938.927ZM1018.23 1136.15L1016.23 1136.18L1016.23 1136.19L1016.23 1136.2L1018.23 1136.15ZM992.258 1189.62C982.944 1192.53 974.697 1191.89 967.355 1187.87L965.432 1191.38C973.862 1196 983.256 1196.63 993.453 1193.43L992.258 1189.62ZM967.32 1187.85C960.042 1184.04 954.959 1177.7 952.114 1168.62L948.296 1169.82C951.413 1179.77 957.122 1187.03 965.466 1191.39L967.32 1187.85ZM952.114 1168.62C949.793 1161.21 950.112 1154.01 953.063 1146.94L949.371 1145.4C946.054 1153.35 945.698 1161.52 948.296 1169.82L952.114 1168.62ZM953.063 1146.94C955.974 1139.96 960.899 1135.44 967.936 1133.23L966.741 1129.41C958.55 1131.98 952.727 1137.35 949.371 1145.4L953.063 1146.94ZM967.936 1133.23C973.251 1131.57 977.878 1131.81 981.957 1133.76L983.688 1130.16C978.542 1127.69 972.847 1127.5 966.741 1129.41L967.936 1133.23ZM981.953 1133.76C986.405 1135.91 989.257 1139.17 990.649 1143.62L994.466 1142.42C992.727 1136.87 989.09 1132.76 983.692 1130.16L981.953 1133.76ZM990.649 1143.62C991.521 1146.4 991.677 1149.14 991.137 1151.87L995.06 1152.65C995.736 1149.24 995.531 1145.82 994.466 1142.42L990.649 1143.62ZM991.114 1152.01C990.774 1154.76 989.978 1157.1 988.764 1159.09L992.177 1161.18C993.727 1158.64 994.683 1155.74 995.083 1152.5L991.114 1152.01ZM988.775 1159.07C986.133 1163.3 985.203 1167.52 986.472 1171.58L990.289 1170.38C989.471 1167.77 989.935 1164.76 992.167 1161.19L988.775 1159.07ZM986.472 1171.58C987.261 1174.1 988.688 1176.17 990.748 1177.73L993.159 1174.53C991.796 1173.5 990.841 1172.14 990.289 1170.38L986.472 1171.58ZM990.785 1177.75C993.425 1179.65 996.549 1179.92 999.869 1178.88L998.674 1175.06C996.284 1175.81 994.529 1175.52 993.121 1174.51L990.785 1177.75ZM999.869 1178.88C1004.9 1177.31 1007.76 1172.92 1008.89 1166.7L1004.95 1165.99C1003.97 1171.41 1001.74 1174.11 998.674 1175.06L999.869 1178.88ZM1008.87 1166.78C1010.2 1160.7 1010.85 1153.42 1010.85 1144.97L1006.85 1144.97C1006.85 1153.24 1006.21 1160.21 1004.96 1165.92L1008.87 1166.78ZM1010.85 1144.95L1010.33 1102L1006.33 1102.05L1006.85 1145L1010.85 1144.95ZM1009.86 1100.74L901.837 972.317L898.776 974.891L1006.8 1103.31L1009.86 1100.74ZM901.83 972.308C896.017 965.473 891.038 960.829 886.924 958.677L885.07 962.222C888.455 963.992 893.015 968.118 898.783 974.9L901.83 972.308ZM887.068 958.76C882.788 956.047 877.338 955.971 871.097 957.925L872.293 961.742C877.949 959.971 882.034 960.305 884.926 962.139L887.068 958.76ZM871.097 957.925L865.744 959.602L866.939 963.419L872.293 961.742L871.097 957.925ZM868.25 960.913L865.567 952.347L861.75 953.543L864.433 962.108L868.25 960.913ZM864.257 954.853L951.698 927.467L950.503 923.65L863.061 951.036L864.257 954.853ZM949.192 926.157L951.875 934.722L955.692 933.527L953.009 924.961L949.192 926.157ZM953.186 932.216L942.835 935.458L944.031 939.275L954.381 936.033L953.186 932.216ZM942.835 935.458C940.15 936.299 938.028 938.126 936.441 940.722L939.855 942.808C941.032 940.88 942.433 939.775 944.031 939.275L942.835 935.458ZM936.376 940.838C934.936 943.592 934.848 946.679 935.865 949.926L939.682 948.731C938.911 946.267 939.073 944.312 939.92 942.692L936.376 940.838ZM935.865 949.926C936.798 952.905 938.862 956.211 941.865 959.819L944.939 957.26C942.077 953.821 940.389 950.986 939.682 948.731L935.865 949.926ZM941.87 959.826L1006.24 1036.47L1009.3 1033.9L944.933 957.253L941.87 959.826ZM1009.77 1035.15L1008.49 949.724L1004.49 949.784L1005.77 1035.21L1009.77 1035.15ZM1008.49 949.637C1008.06 942.398 1007.25 936.71 1005.98 932.67L1002.16 933.865C1003.28 937.439 1004.08 942.742 1004.5 949.871L1008.49 949.637ZM1005.98 932.67C1004.75 928.741 1002.6 925.575 999.502 923.276L997.118 926.488C999.467 928.232 1001.16 930.656 1002.16 933.865L1005.98 932.67ZM999.567 923.326C996.224 920.627 992.339 919.954 988.162 921.262L989.358 925.079C992.319 924.151 994.801 924.619 997.054 926.438L999.567 923.326ZM988.162 921.262L978.883 924.168L980.078 927.985L989.358 925.079L988.162 921.262ZM981.389 925.479L978.706 916.913L974.889 918.109L977.572 926.674L981.389 925.479ZM977.396 919.419L1036.28 900.976L1035.09 897.159L976.2 915.602L977.396 919.419ZM1033.78 899.665L1036.46 908.231L1040.28 907.035L1037.6 898.47L1033.78 899.665ZM1037.77 905.724L1029.92 908.184L1031.12 912.001L1038.97 909.542L1037.77 905.724ZM1029.92 908.184C1025.02 909.718 1021.1 913.353 1018.07 918.735L1021.56 920.695C1024.24 915.929 1027.45 913.149 1031.12 912.001L1029.92 908.184ZM1018.07 918.731C1015.14 923.919 1013.86 930.722 1014.03 938.969L1018.03 938.885C1017.87 931.039 1019.11 925.034 1021.56 920.698L1018.07 918.731ZM1014.03 938.949L1016.23 1136.18L1020.23 1136.13L1018.03 938.905L1014.03 938.949ZM1016.23 1136.2C1016.57 1151.74 1014.64 1163.87 1010.59 1172.71C1006.57 1181.48 1000.46 1187.05 992.258 1189.62L993.453 1193.43C1002.86 1190.49 1009.78 1184.06 1014.22 1174.38C1018.63 1164.77 1020.58 1151.96 1020.23 1136.11L1016.23 1136.2ZM1114.24 1054.36L1113.62 1056.26L1113.63 1056.26L1113.64 1056.26L1114.24 1054.36ZM1095.87 984.466L1097.52 985.596L1097.53 985.592L1095.87 984.466ZM1132.02 948.456L1133.2 950.068L1133.21 950.063L1133.21 950.058L1132.02 948.456ZM1155.52 930.905L1156.72 932.507L1157.85 931.659L1157.43 930.307L1155.52 930.905ZM1132.16 882.572L1133.16 880.843L1133.16 880.843L1132.16 882.572ZM1094.28 890.516L1095.77 891.845L1095.78 891.834L1095.79 891.824L1094.28 890.516ZM1093.69 909.904L1092.06 911.075L1092.15 911.19L1092.25 911.293L1093.69 909.904ZM1099.89 913.448L1099.33 915.368L1099.37 915.381L1099.42 915.392L1099.89 913.448ZM1109.51 917.882L1108.18 919.376L1108.23 919.423L1108.29 919.466L1109.51 917.882ZM1112.74 941.953L1114.37 943.106L1114.38 943.1L1114.38 943.093L1112.74 941.953ZM1082.67 949.803L1081.74 951.576L1081.79 951.601L1081.84 951.624L1082.67 949.803ZM1071.26 907.13L1073.13 907.847L1073.13 907.832L1073.14 907.816L1071.26 907.13ZM1087.29 884.474L1088.57 886.006L1088.59 885.991L1088.61 885.975L1087.29 884.474ZM1160.88 870.439L1160.25 872.336L1160.26 872.34L1160.27 872.344L1160.88 870.439ZM1239.52 995.13L1241.52 995.106L1241.52 995.106L1239.52 995.13ZM1235.02 969.497L1234.42 967.589L1232.51 968.187L1233.11 970.095L1235.02 969.497ZM1245.01 966.368L1246.92 965.77L1246.32 963.861L1244.41 964.459L1245.01 966.368ZM1249.12 1007.02L1247.19 1006.48L1247.19 1006.51L1247.18 1006.53L1249.12 1007.02ZM1241.3 1020.83L1242.74 1022.22L1242.74 1022.22L1241.3 1020.83ZM1202.64 1032.55L1202.14 1034.48L1202.18 1034.49L1202.21 1034.5L1202.64 1032.55ZM1185.45 1021.47L1186.91 1020.1L1186.05 1019.18L1184.86 1019.56L1185.45 1021.47ZM1184.74 1021.69L1184.14 1019.78L1183.18 1020.08L1182.85 1021.04L1184.74 1021.69ZM1180.67 1011.21L1182.65 1011.53L1182.72 1011.06L1182.58 1010.61L1180.67 1011.21ZM1158.54 940.541L1160.45 939.943L1159.6 937.235L1157.34 938.945L1158.54 940.541ZM1140.79 953.939L1139.58 952.343L1139.58 952.35L1140.79 953.939ZM1128.44 975.834L1126.46 975.562L1126.46 975.575L1126.46 975.588L1128.44 975.834ZM1147.06 1031.53L1146.09 1033.28L1146.09 1033.28L1147.06 1031.53ZM1150.21 1051.58C1137.44 1055.57 1125.67 1055.82 1114.83 1052.45L1113.64 1056.26C1125.38 1059.92 1137.99 1059.59 1151.4 1055.39L1150.21 1051.58ZM1114.85 1052.45C1104.63 1049.13 1097.06 1040.39 1092.41 1025.53L1088.59 1026.72C1093.48 1042.32 1101.74 1052.4 1113.62 1056.26L1114.85 1052.45ZM1092.41 1025.53C1087.73 1010.59 1089.48 997.348 1097.52 985.596L1094.22 983.336C1085.42 996.197 1083.58 1010.73 1088.59 1026.72L1092.41 1025.53ZM1097.53 985.592C1105.96 973.202 1117.83 961.355 1133.2 950.068L1130.83 946.844C1115.19 958.333 1102.97 970.493 1094.22 983.341L1097.53 985.592ZM1133.21 950.058L1156.72 932.507L1154.33 929.302L1130.82 946.853L1133.21 950.058ZM1157.43 930.307L1149.83 906.037L1146.01 907.233L1153.61 931.503L1157.43 930.307ZM1149.83 906.037C1145.97 893.712 1140.51 885.12 1133.16 880.843L1131.15 884.3C1137.23 887.838 1142.27 895.289 1146.01 907.233L1149.83 906.037ZM1133.16 880.843C1125.93 876.634 1118.07 875.874 1109.71 878.49L1110.91 882.307C1118.26 880.005 1124.96 880.693 1131.15 884.3L1133.16 880.843ZM1109.71 878.49C1102.75 880.673 1097.07 884.232 1092.76 889.208L1095.79 891.824C1099.54 887.483 1104.55 884.298 1110.91 882.307L1109.71 878.49ZM1092.78 889.187C1088.48 894.019 1087.17 899.531 1089.03 905.484L1092.85 904.288C1091.43 899.772 1092.34 895.704 1095.77 891.845L1092.78 889.187ZM1089.03 905.484C1089.57 907.2 1090.62 909.072 1092.06 911.075L1095.31 908.734C1093.98 906.901 1093.2 905.427 1092.85 904.288L1089.03 905.484ZM1092.25 911.293C1094.08 913.196 1096.48 914.533 1099.33 915.368L1100.45 911.528C1098.13 910.849 1096.39 909.823 1095.13 908.516L1092.25 911.293ZM1099.42 915.392C1103.49 916.374 1106.35 917.744 1108.18 919.376L1110.84 916.387C1108.33 914.155 1104.77 912.569 1100.36 911.504L1099.42 915.392ZM1108.29 919.466C1110.29 921.006 1111.9 923.441 1113.01 926.977L1116.82 925.781C1115.55 921.703 1113.55 918.473 1110.73 916.298L1108.29 919.466ZM1113.01 926.977C1114.62 932.134 1113.96 936.679 1111.09 940.814L1114.38 943.093C1117.99 937.883 1118.78 932.045 1116.82 925.781L1113.01 926.977ZM1111.1 940.8C1108.27 944.809 1104.6 947.501 1100.03 948.932L1101.23 952.749C1106.65 951.05 1111.05 947.818 1114.37 943.106L1111.1 940.8ZM1100.03 948.932C1094.3 950.726 1088.82 950.404 1083.49 947.982L1081.84 951.624C1088.09 954.461 1094.58 954.831 1101.23 952.749L1100.03 948.932ZM1083.59 948.031C1078.57 945.402 1074.8 940.518 1072.45 933.015L1068.63 934.211C1071.2 942.412 1075.52 948.321 1081.74 951.576L1083.59 948.031ZM1072.45 933.015C1069.75 924.392 1069.98 916.028 1073.13 907.847L1069.39 906.412C1065.92 915.459 1065.67 924.751 1068.63 934.211L1072.45 933.015ZM1073.14 907.816C1076.25 899.304 1081.39 892.04 1088.57 886.006L1086 882.942C1078.3 889.411 1072.74 897.251 1069.38 906.443L1073.14 907.816ZM1088.61 885.975C1095.79 879.658 1103.63 875.18 1112.15 872.512L1110.96 868.695C1101.87 871.541 1093.54 876.31 1085.97 882.973L1088.61 885.975ZM1112.15 872.512C1128.92 867.262 1144.93 867.224 1160.25 872.336L1161.52 868.541C1145.33 863.142 1128.46 863.215 1110.96 868.695L1112.15 872.512ZM1160.27 872.344C1175.17 877.109 1185.76 888.989 1191.89 908.543L1195.7 907.347C1189.31 886.928 1177.96 873.803 1161.49 868.534L1160.27 872.344ZM1191.89 908.543L1220.17 998.84L1223.98 997.644L1195.7 907.347L1191.89 908.543ZM1220.17 998.84C1221.54 1003.24 1223.27 1006.65 1225.5 1008.77C1226.64 1009.85 1227.94 1010.62 1229.39 1010.97C1230.85 1011.33 1232.35 1011.23 1233.83 1010.76L1232.64 1006.95C1231.74 1007.23 1230.99 1007.25 1230.33 1007.09C1229.67 1006.93 1228.98 1006.56 1228.25 1005.87C1226.76 1004.45 1225.29 1001.81 1223.98 997.644L1220.17 998.84ZM1233.83 1010.76C1236.59 1009.9 1238.59 1007.98 1239.84 1005.25C1241.06 1002.59 1241.57 999.159 1241.52 995.106L1237.52 995.154C1237.56 998.91 1237.08 1001.67 1236.2 1003.59C1235.36 1005.43 1234.17 1006.47 1232.64 1006.95L1233.83 1010.76ZM1241.52 995.106C1241.42 987.062 1239.88 978.322 1236.93 968.9L1233.11 970.095C1235.97 979.232 1237.43 987.581 1237.52 995.154L1241.52 995.106ZM1235.62 971.406L1245.61 968.276L1244.41 964.459L1234.42 967.589L1235.62 971.406ZM1243.1 966.965C1248.51 984.222 1249.74 997.316 1247.19 1006.48L1251.05 1007.55C1253.91 997.256 1252.4 983.252 1246.92 965.77L1243.1 966.965ZM1247.18 1006.53C1246 1011.27 1243.57 1015.57 1239.85 1019.45L1242.74 1022.22C1246.9 1017.88 1249.69 1012.97 1251.06 1007.5L1247.18 1006.53ZM1239.85 1019.45C1236.18 1023.28 1231.42 1026.14 1225.51 1027.99L1226.71 1031.81C1233.17 1029.78 1238.54 1026.6 1242.74 1022.22L1239.85 1019.45ZM1225.51 1027.99C1215.89 1031.01 1208.46 1031.77 1203.07 1030.59L1202.21 1034.5C1208.6 1035.9 1216.82 1034.9 1226.71 1031.81L1225.51 1027.99ZM1203.14 1030.61C1197.64 1029.2 1192.22 1025.76 1186.91 1020.1L1184 1022.84C1189.67 1028.89 1195.71 1032.84 1202.14 1034.48L1203.14 1030.61ZM1184.86 1019.56L1184.14 1019.78L1185.34 1023.6L1186.05 1023.38L1184.86 1019.56ZM1182.85 1021.04C1177.58 1036.22 1166.78 1046.38 1150.21 1051.58L1151.4 1055.39C1169.09 1049.85 1180.91 1038.82 1186.63 1022.35L1182.85 1021.04ZM1164.42 1035.64C1174.62 1032.44 1180.61 1024.15 1182.65 1011.53L1178.7 1010.89C1176.83 1022.48 1171.58 1029.21 1163.22 1031.82L1164.42 1035.64ZM1182.58 1010.61L1160.45 939.943L1156.63 941.139L1178.76 1011.81L1182.58 1010.61ZM1157.34 938.945L1139.58 952.343L1141.99 955.535L1159.75 942.138L1157.34 938.945ZM1139.58 952.35C1132.17 958.009 1127.8 965.797 1126.46 975.562L1130.42 976.106C1131.63 967.306 1135.5 960.498 1142 955.528L1139.58 952.35ZM1126.46 975.588C1125.3 984.953 1126.91 996.409 1131.13 1009.87L1134.95 1008.68C1130.82 995.492 1129.37 984.654 1130.43 976.079L1126.46 975.588ZM1131.13 1009.87C1134.82 1021.64 1139.69 1029.71 1146.09 1033.28L1148.04 1029.79C1143.04 1027 1138.56 1020.23 1134.95 1008.68L1131.13 1009.87ZM1146.09 1033.28C1152.19 1036.69 1158.35 1037.54 1164.42 1035.64L1163.22 1031.82C1158.35 1033.35 1153.33 1032.74 1148.04 1029.79L1146.09 1033.28ZM1327.92 1073.65L1327.58 1075.62L1327.59 1075.62L1327.92 1073.65ZM1297.01 1023.76L1295.2 1022.9L1295.2 1022.92L1295.19 1022.94L1297.01 1023.76ZM1317.5 1002.84L1318.51 1004.57L1319.89 1003.77L1319.41 1002.25L1317.5 1002.84ZM1317.17 1001.77L1319.07 1001.18L1318.51 999.39L1316.7 999.829L1317.17 1001.77ZM1295.1 998.887L1294.21 1000.68L1294.21 1000.68L1295.1 998.887ZM1307.06 926.948L1308.01 928.706L1309.46 927.921L1308.96 926.351L1307.06 926.948ZM1306.61 925.521L1308.52 924.923L1308.13 923.673L1306.82 923.532L1306.61 925.521ZM1276.17 914.674L1275.08 916.352L1275.1 916.362L1275.11 916.37L1276.17 914.674ZM1255.85 854.805L1253.95 854.172L1253.95 854.189L1253.94 854.207L1255.85 854.805ZM1273.62 827.686L1274.96 829.166L1274.97 829.159L1274.98 829.152L1273.62 827.686ZM1358.93 813.509L1358.08 815.322L1358.78 815.649L1359.52 815.418L1358.93 813.509ZM1360 813.174L1360.59 815.082L1361.68 814.743L1361.94 813.638L1360 813.174ZM1401.39 787.669L1400.46 789.441L1400.48 789.453L1400.51 789.464L1401.39 787.669ZM1413.41 822.31L1411.54 821.616L1411.53 821.643L1411.52 821.671L1413.41 822.31ZM1390.95 834.439L1390.19 836.288L1390.24 836.308L1390.29 836.325L1390.95 834.439ZM1385.45 811.864L1383.68 810.937L1383.63 811.035L1383.59 811.138L1385.45 811.864ZM1387.81 805.638L1385.88 805.133L1385.88 805.133L1387.81 805.638ZM1365.24 817.41L1363.29 816.982L1362.98 818.406L1364.24 819.139L1365.24 817.41ZM1387.23 876.364L1389.15 876.938L1389.15 876.925L1389.16 876.912L1387.23 876.364ZM1369.94 903.728L1368.53 902.301L1368.53 902.308L1368.52 902.315L1369.94 903.728ZM1304.03 937.303L1305.1 938.989L1305.12 938.976L1305.15 938.962L1304.03 937.303ZM1419.22 944.727L1419.86 942.83L1419.86 942.83L1419.22 944.727ZM1448.05 1011.73L1446.12 1011.2L1446.12 1011.21L1446.11 1011.22L1448.05 1011.73ZM1427.92 1045.08L1426.52 1043.65L1427.92 1045.08ZM1349.36 896.847L1351.35 897.087L1351.35 897.076L1351.35 897.064L1349.36 896.847ZM1326.89 825.109L1325.38 826.421L1325.39 826.43L1325.4 826.439L1326.89 825.109ZM1293.34 835.616L1291.36 835.347L1291.36 835.361L1291.36 835.375L1293.34 835.616ZM1315.81 907.354L1314.3 908.667L1314.33 908.695L1314.35 908.723L1315.81 907.354ZM1419.12 1034.51L1417.69 1033.11L1417.69 1033.11L1419.12 1034.51ZM1407.6 985.206L1407.77 983.213L1407.75 983.211L1407.72 983.21L1407.6 985.206ZM1321.1 1013.08L1319.97 1011.43L1319.96 1011.44L1319.95 1011.45L1321.1 1013.08ZM1333.56 1062.87L1333.81 1060.89L1333.81 1060.89L1333.8 1060.89L1333.56 1062.87ZM1387.4 1065.86C1365.49 1072.72 1345.79 1074.62 1328.25 1071.68L1327.59 1075.62C1345.9 1078.7 1366.25 1076.68 1388.6 1069.68L1387.4 1065.86ZM1328.26 1071.68C1311.1 1068.69 1300.86 1060.63 1296.81 1047.73L1293 1048.93C1297.6 1063.63 1309.36 1072.45 1327.58 1075.62L1328.26 1071.68ZM1296.81 1047.73C1294.52 1040.41 1295.14 1032.73 1298.83 1024.59L1295.19 1022.94C1291.15 1031.84 1290.37 1040.54 1293 1048.93L1296.81 1047.73ZM1298.82 1024.62C1302.54 1016.77 1309.05 1010.07 1318.51 1004.57L1316.5 1001.12C1306.5 1006.93 1299.35 1014.18 1295.2 1022.9L1298.82 1024.62ZM1319.41 1002.25L1319.07 1001.18L1315.26 1002.37L1315.59 1003.44L1319.41 1002.25ZM1316.7 999.829C1309.91 1001.47 1303.04 1000.59 1295.99 997.095L1294.21 1000.68C1302.01 1004.55 1309.84 1005.6 1317.64 1003.72L1316.7 999.829ZM1295.99 997.095C1289.06 993.659 1284.44 988.211 1282.07 980.628L1278.25 981.823C1280.94 990.42 1286.28 996.745 1294.21 1000.68L1295.99 997.095ZM1282.07 980.628C1278.66 969.726 1279.15 960.097 1283.37 951.591C1287.61 943.038 1295.72 935.378 1308.01 928.706L1306.1 925.191C1293.38 932.1 1284.51 940.277 1279.78 949.815C1275.03 959.402 1274.59 970.121 1278.25 981.823L1282.07 980.628ZM1308.96 926.351L1308.52 924.923L1304.7 926.119L1305.15 927.546L1308.96 926.351ZM1306.82 923.532C1296.6 922.429 1286.74 918.924 1277.23 912.979L1275.11 916.37C1285.09 922.609 1295.52 926.336 1306.39 927.509L1306.82 923.532ZM1277.26 912.996C1268.2 907.124 1261.73 898.154 1257.89 885.911L1254.07 887.106C1258.14 900.084 1265.12 909.891 1275.08 916.352L1277.26 912.996ZM1257.89 885.911C1254.66 875.582 1254.62 865.431 1257.76 855.402L1253.94 854.207C1250.55 865.036 1250.6 876.021 1254.07 887.106L1257.89 885.911ZM1257.75 855.437C1261.14 845.265 1266.87 836.516 1274.96 829.166L1272.27 826.205C1263.68 834.008 1257.57 843.337 1253.95 854.172L1257.75 855.437ZM1274.98 829.152C1283.25 821.472 1292.95 815.887 1304.1 812.396L1302.9 808.579C1291.21 812.242 1280.98 818.122 1272.26 826.219L1274.98 829.152ZM1304.1 812.396C1323.17 806.424 1341.13 807.422 1358.08 815.322L1359.77 811.696C1341.85 803.347 1322.86 802.329 1302.9 808.579L1304.1 812.396ZM1359.52 815.418L1360.59 815.082L1359.4 811.265L1358.33 811.601L1359.52 815.418ZM1361.94 813.638C1365.35 799.33 1371.89 791.165 1381.19 788.252L1380 784.435C1368.84 787.93 1361.64 797.652 1358.05 812.71L1361.94 813.638ZM1381.19 788.252C1388.37 786.003 1394.75 786.452 1400.46 789.441L1402.32 785.896C1395.53 782.349 1388.04 781.914 1380 784.435L1381.19 788.252ZM1400.51 789.464C1406.2 792.259 1409.92 796.56 1411.76 802.449L1415.58 801.253C1413.4 794.293 1408.92 789.139 1402.27 785.873L1400.51 789.464ZM1411.76 802.449C1413.87 809.2 1413.78 815.563 1411.54 821.616L1415.29 823.004C1417.86 816.054 1417.93 808.778 1415.58 801.253L1411.76 802.449ZM1411.52 821.671C1409.51 827.617 1406.1 831.127 1401.36 832.613L1402.55 836.43C1408.75 834.488 1412.98 829.857 1415.31 822.949L1411.52 821.671ZM1401.36 832.613C1397.93 833.685 1394.71 833.647 1391.62 832.554L1390.29 836.325C1394.25 837.726 1398.36 837.742 1402.55 836.43L1401.36 832.613ZM1391.72 832.59C1388.68 831.338 1386.69 829.16 1385.67 825.903L1381.86 827.099C1383.22 831.456 1386.03 834.57 1390.19 836.288L1391.72 832.59ZM1385.67 825.903C1384.68 822.722 1385.07 818.354 1387.32 812.589L1383.59 811.138C1381.2 817.275 1380.47 822.666 1381.86 827.099L1385.67 825.903ZM1387.22 812.791C1388.28 810.768 1389.12 808.549 1389.75 806.142L1385.88 805.133C1385.32 807.279 1384.58 809.21 1383.68 810.937L1387.22 812.791ZM1389.75 806.142C1390.39 803.693 1390.55 801.419 1389.94 799.484L1386.12 800.68C1386.41 801.6 1386.43 803.03 1385.88 805.133L1389.75 806.142ZM1389.94 799.484C1389.2 797.126 1387.76 795.324 1385.5 794.506C1383.36 793.731 1380.84 793.969 1378.15 794.81L1379.35 798.627C1381.66 797.904 1383.18 797.92 1384.14 798.266C1384.97 798.569 1385.67 799.231 1386.12 800.68L1389.94 799.484ZM1378.15 794.81C1370.63 797.165 1365.9 805.057 1363.29 816.982L1367.2 817.838C1369.74 806.199 1374.02 800.296 1379.35 798.627L1378.15 794.81ZM1364.24 819.139C1373.91 824.761 1381.08 834.624 1385.6 849.05L1389.41 847.855C1384.69 832.776 1377.02 821.944 1366.25 815.681L1364.24 819.139ZM1385.6 849.05C1388.14 857.186 1388.08 866.086 1385.31 875.815L1389.16 876.912C1392.11 866.558 1392.23 856.851 1389.41 847.855L1385.6 849.05ZM1385.32 875.789C1382.49 885.217 1376.93 894.056 1368.53 902.301L1371.34 905.155C1380.13 896.521 1386.1 887.118 1389.15 876.938L1385.32 875.789ZM1368.52 902.315C1360.43 910.416 1350.01 916.496 1337.18 920.514L1338.37 924.331C1351.72 920.151 1362.74 913.768 1371.35 905.141L1368.52 902.315ZM1337.18 920.514C1322.57 925.088 1311.12 930.118 1302.91 935.644L1305.15 938.962C1312.9 933.739 1323.95 928.848 1338.37 924.331L1337.18 920.514ZM1302.95 935.616C1298.71 938.32 1295.66 941.467 1294.03 945.123C1292.39 948.819 1292.29 952.826 1293.61 957.026L1297.43 955.831C1296.36 952.417 1296.49 949.429 1297.68 946.75C1298.89 944.031 1301.29 941.422 1305.1 938.989L1302.95 935.616ZM1293.61 957.026C1295.07 961.692 1297.91 964.923 1302.2 966.328C1306.34 967.686 1311.52 967.23 1317.52 965.352L1316.32 961.534C1310.66 963.307 1306.44 963.508 1303.45 962.527C1300.6 961.594 1298.57 959.493 1297.43 955.831L1293.61 957.026ZM1317.52 965.352L1373.91 947.691L1372.71 943.873L1316.32 961.534L1317.52 965.352ZM1373.91 947.691C1390.49 942.497 1405.36 942.197 1418.59 946.624L1419.86 942.83C1405.66 938.082 1389.92 938.485 1372.71 943.873L1373.91 947.691ZM1418.59 946.624C1431.59 950.971 1440.58 960.788 1445.49 976.475L1449.31 975.28C1444.09 958.608 1434.29 947.658 1419.86 942.83L1418.59 946.624ZM1445.49 976.475C1449.1 988.007 1449.31 999.567 1446.12 1011.2L1449.98 1012.26C1453.37 999.884 1453.15 987.542 1449.31 975.28L1445.49 976.475ZM1446.11 1011.22C1443 1023.07 1436.5 1033.88 1426.52 1043.65L1429.32 1046.5C1439.74 1036.3 1446.66 1024.88 1449.98 1012.24L1446.11 1011.22ZM1426.52 1043.65C1416.59 1053.37 1403.58 1060.79 1387.4 1065.86L1388.6 1069.68C1405.26 1064.46 1418.86 1056.75 1429.32 1046.5L1426.52 1043.65ZM1337.01 914.961C1341.13 913.669 1344.48 911.519 1346.92 908.461C1349.36 905.411 1350.8 901.582 1351.35 897.087L1347.38 896.606C1346.9 900.53 1345.67 903.612 1343.8 905.964C1341.92 908.308 1339.3 910.052 1335.81 911.144L1337.01 914.961ZM1351.35 897.064C1352.34 887.978 1350.14 875.111 1344.98 858.637L1341.16 859.832C1346.28 876.193 1348.27 888.401 1347.37 896.629L1351.35 897.064ZM1344.98 858.637C1339.82 842.17 1334.33 830.446 1328.39 823.778L1325.4 826.439C1330.74 832.436 1336.03 843.463 1341.16 859.832L1344.98 858.637ZM1328.4 823.796C1325.36 820.3 1321.97 817.884 1318.21 816.703C1314.43 815.517 1310.44 815.625 1306.3 816.921L1307.5 820.738C1310.97 819.65 1314.12 819.612 1317.01 820.519C1319.91 821.431 1322.71 823.346 1325.38 826.421L1328.4 823.796ZM1306.3 816.921C1302.05 818.251 1298.61 820.466 1296.07 823.614C1293.53 826.754 1291.99 830.701 1291.36 835.347L1295.33 835.885C1295.88 831.799 1297.19 828.583 1299.18 826.127C1301.15 823.679 1303.89 821.867 1307.5 820.738L1306.3 816.921ZM1291.36 835.375C1290.28 844.24 1292.46 857.003 1297.62 873.469L1301.43 872.274C1296.31 855.905 1294.36 843.83 1295.33 835.857L1291.36 835.375ZM1297.62 873.469C1302.78 889.943 1308.3 901.77 1314.3 908.667L1317.32 906.041C1311.89 899.796 1306.56 888.635 1301.43 872.274L1297.62 873.469ZM1314.35 908.723C1317.49 912.065 1320.98 914.334 1324.84 915.4C1328.7 916.467 1332.77 916.288 1337.01 914.961L1335.81 911.144C1332.19 912.277 1328.91 912.377 1325.9 911.545C1322.89 910.711 1320.01 908.901 1317.27 905.985L1314.35 908.723ZM1379.67 1059.93C1396.35 1054.71 1410 1046.71 1420.56 1035.9L1417.69 1033.11C1407.67 1043.37 1394.63 1051.06 1378.47 1056.12L1379.67 1059.93ZM1420.56 1035.9C1431.27 1024.93 1434.78 1012.73 1430.65 999.544L1426.83 1000.74C1430.45 1012.3 1427.55 1023.01 1417.69 1033.11L1420.56 1035.9ZM1430.65 999.544C1429.12 994.648 1426.4 990.76 1422.49 987.993C1418.59 985.243 1413.65 983.691 1407.77 983.213L1407.44 987.2C1412.82 987.637 1417.03 989.032 1420.18 991.26C1423.31 993.471 1425.53 996.593 1426.83 1000.74L1430.65 999.544ZM1407.72 983.21C1396.21 982.513 1382.63 984.661 1367.03 989.547L1368.22 993.365C1383.55 988.564 1396.62 986.545 1407.48 987.203L1407.72 983.21ZM1367.03 989.547C1348.56 995.331 1332.87 1002.62 1319.97 1011.43L1322.23 1014.73C1334.73 1006.19 1350.05 999.058 1368.22 993.365L1367.03 989.547ZM1319.95 1011.45C1313.43 1016.05 1308.87 1021.18 1306.48 1026.89C1304.07 1032.64 1303.93 1038.8 1305.96 1045.26L1309.78 1044.06C1308 1038.39 1308.17 1033.22 1310.17 1028.44C1312.19 1023.62 1316.14 1019.03 1322.25 1014.72L1319.95 1011.45ZM1305.96 1045.26C1307.72 1050.89 1310.94 1055.4 1315.59 1058.7C1320.22 1061.98 1326.17 1063.99 1333.32 1064.86L1333.8 1060.89C1327.1 1060.08 1321.84 1058.22 1317.91 1055.43C1314 1052.66 1311.29 1048.9 1309.78 1044.06L1305.96 1045.26ZM1333.3 1064.86C1347.8 1066.73 1363.26 1065.07 1379.67 1059.93L1378.47 1056.12C1362.52 1061.11 1347.64 1062.68 1333.81 1060.89L1333.3 1064.86ZM1515.98 926.18L1515.37 928.083L1515.39 928.09L1515.41 928.097L1515.98 926.18ZM1479.04 902.085L1477.58 903.442L1477.58 903.442L1479.04 902.085ZM1450.88 812.145L1448.9 811.868L1450.88 812.145ZM1466.98 772.221L1468.56 773.446L1468.57 773.439L1466.98 772.221ZM1542.09 753.008L1541.16 754.781L1541.17 754.786L1541.18 754.791L1542.09 753.008ZM1575.53 787.212L1573.78 788.168L1573.79 788.186L1573.8 788.204L1575.53 787.212ZM1589.21 822.12L1589.81 824.029L1591.72 823.431L1591.12 821.523L1589.21 822.12ZM1502.13 849.394L1501.53 847.486L1499.62 848.084L1500.22 849.992L1502.13 849.394ZM1511.33 876.296L1509.47 877.028L1509.48 877.033L1511.33 876.296ZM1520.47 894.206L1522.18 893.174L1522.17 893.153L1522.16 893.132L1520.47 894.206ZM1539.2 911.463L1538.39 913.29L1538.41 913.298L1538.42 913.306L1539.2 911.463ZM1586.46 888.43L1584.56 887.829L1584.56 887.829L1586.46 888.43ZM1588.02 848.359L1587.42 846.45L1585.7 846.989L1586.06 848.757L1588.02 848.359ZM1597.3 845.453L1599.25 845.022L1598.79 842.892L1596.7 843.544L1597.3 845.453ZM1594.88 894.025L1596.76 894.692L1596.77 894.683L1596.77 894.675L1594.88 894.025ZM1544.68 825.093L1545.28 827.002L1547.19 826.404L1546.59 824.496L1544.68 825.093ZM1522.36 771.338L1520.66 772.389L1520.67 772.409L1520.68 772.428L1522.36 771.338ZM1486.31 782.628L1484.31 782.699L1484.31 782.712L1484.31 782.726L1486.31 782.628ZM1499 839.401L1497.09 839.999L1497.68 841.907L1499.59 841.31L1499 839.401ZM1558.69 923.642C1544.3 928.149 1530.27 928.344 1516.55 924.263L1515.41 928.097C1529.93 932.417 1544.78 932.192 1559.89 927.459L1558.69 923.642ZM1516.6 924.277C1503 919.878 1490.97 912.045 1480.51 900.728L1477.58 903.442C1488.46 915.226 1501.06 923.457 1515.37 928.083L1516.6 924.277ZM1480.51 900.728C1470.06 889.412 1462.33 875.812 1457.34 859.892L1453.53 861.088C1458.68 877.528 1466.69 891.658 1477.58 903.442L1480.51 900.728ZM1457.34 859.892C1452.21 843.488 1450.73 827.672 1452.86 812.422L1448.9 811.868C1446.67 827.767 1448.23 844.181 1453.53 861.088L1457.34 859.892ZM1452.86 812.422C1454.99 797.149 1460.24 784.179 1468.56 773.446L1465.4 770.995C1456.6 782.346 1451.11 795.992 1448.9 811.868L1452.86 812.422ZM1468.57 773.439C1477.05 762.396 1487.62 754.92 1500.3 750.95L1499.1 747.133C1485.6 751.36 1474.36 759.337 1465.4 771.002L1468.57 773.439ZM1500.3 750.95C1514.29 746.566 1527.88 747.83 1541.16 754.781L1543.02 751.236C1528.81 743.805 1514.13 742.425 1499.1 747.133L1500.3 750.95ZM1541.18 754.791C1554.44 761.53 1565.31 772.609 1573.78 788.168L1577.29 786.257C1568.51 770.115 1557.09 758.392 1543 751.226L1541.18 754.791ZM1573.8 788.204C1577.73 795.099 1582.24 806.562 1587.3 822.718L1591.12 821.523C1586.04 805.319 1581.43 793.51 1577.27 786.221L1573.8 788.204ZM1588.61 820.212L1501.53 847.486L1502.72 851.303L1589.81 824.029L1588.61 820.212ZM1500.22 849.992C1503.8 861.432 1506.89 870.45 1509.47 877.028L1513.2 875.564C1510.66 869.115 1507.61 860.199 1504.03 848.797L1500.22 849.992ZM1509.48 877.033C1512.01 883.425 1515.11 889.507 1518.78 895.279L1522.16 893.132C1518.62 887.575 1515.64 881.717 1513.19 875.559L1509.48 877.033ZM1518.76 895.238C1523.84 903.67 1530.37 909.729 1538.39 913.29L1540.01 909.635C1532.85 906.453 1526.9 901.008 1522.18 893.174L1518.76 895.238ZM1538.42 913.306C1546.69 916.786 1555.13 917.192 1563.67 914.516L1562.48 910.699C1554.84 913.091 1547.37 912.733 1539.98 909.62L1538.42 913.306ZM1563.67 914.516C1576 910.654 1584.26 902.071 1588.37 889.032L1584.56 887.829C1580.8 899.723 1573.46 907.259 1562.48 910.699L1563.67 914.516ZM1588.37 889.032C1592.42 876.207 1592.94 862.503 1589.98 847.961L1586.06 848.757C1588.9 862.71 1588.38 875.72 1584.56 887.829L1588.37 889.032ZM1588.62 850.267L1597.9 847.361L1596.7 843.544L1587.42 846.45L1588.62 850.267ZM1595.35 845.883C1598.99 862.408 1598.19 878.225 1592.99 893.375L1596.77 894.675C1602.23 878.792 1603.04 862.226 1599.25 845.022L1595.35 845.883ZM1592.99 893.358C1587.84 907.93 1576.54 918.053 1558.69 923.642L1559.89 927.459C1578.68 921.572 1591.11 910.678 1596.76 894.692L1592.99 893.358ZM1546.59 824.496C1538.75 799.478 1531.25 781.341 1524.03 770.248L1520.68 772.428C1527.58 783.042 1534.96 800.742 1542.77 825.691L1546.59 824.496ZM1524.06 770.287C1520.51 764.537 1516.59 760.377 1512.24 758.047C1507.83 755.681 1503.11 755.284 1498.21 756.816L1499.41 760.633C1503.32 759.409 1506.92 759.735 1510.36 761.573C1513.86 763.448 1517.31 766.973 1520.66 772.389L1524.06 770.287ZM1498.21 756.816C1493.32 758.349 1489.65 761.374 1487.31 765.842C1485.01 770.243 1484.07 775.914 1484.31 782.699L1488.31 782.556C1488.08 776.163 1488.99 771.261 1490.86 767.695C1492.69 764.195 1495.5 761.858 1499.41 760.633L1498.21 756.816ZM1484.31 782.726C1484.96 795.858 1489.25 814.984 1497.09 839.999L1500.9 838.803C1493.09 813.851 1488.93 795.129 1488.31 782.529L1484.31 782.726ZM1499.59 841.31L1545.28 827.002L1544.08 823.185L1498.4 837.493L1499.59 841.31Z" fill="#4480FC"/>
<path d="M742.661 876.252L759.761 870.896C762.042 870.182 763.461 869.29 764.021 868.221C764.529 866.989 764.451 865.314 763.788 863.197L717.881 716.617C717.167 714.337 716.275 712.917 715.206 712.358C714.137 711.799 712.462 711.876 710.182 712.59L693.081 717.946L690.633 710.129L776.626 683.196C786.235 680.187 795.754 679.173 805.182 680.155C814.773 681.085 823.088 683.936 830.126 688.707C837.113 693.314 841.856 699.608 844.356 707.589C847.722 718.338 846.461 728.301 840.572 737.478C834.683 746.655 826.441 754.601 815.847 761.317L816.306 762.783C824.155 761.577 832.249 761.724 840.588 763.226C849.039 764.513 856.57 767.431 863.18 771.978C869.791 776.524 874.346 782.788 876.845 790.768C879.956 800.703 880.029 810.07 877.061 818.868C874.094 827.667 868.799 835.316 861.178 841.816C853.668 848.103 844.701 852.878 834.278 856.143L745.109 884.069L742.661 876.252ZM797.018 763.727C805.813 760.972 810.788 756.016 811.945 748.858C813.05 741.537 811.638 731.606 807.711 719.065C804.395 708.479 799.947 700.841 794.364 696.151C788.731 691.298 782.657 689.892 776.143 691.932L758.064 697.594C755.947 698.257 754.527 699.149 753.805 700.269C753.246 701.339 753.323 703.013 754.038 705.294L774.543 770.766L797.018 763.727ZM824.256 850.697C832.888 847.994 838.429 843.129 840.878 836.102C843.439 828.862 842.399 817.831 837.757 803.01C833.115 788.189 827.703 778.618 821.521 774.294C815.45 769.757 808.098 768.841 799.467 771.544L776.991 778.583L799.945 851.873C800.608 853.99 801.499 855.41 802.62 856.132C803.852 856.64 805.527 856.563 807.644 855.9L824.256 850.697ZM965.887 818.143C957.092 820.898 948.051 820.868 938.764 818.054C929.426 815.076 921.023 809.66 913.556 801.805C906.088 793.95 900.569 784.322 896.998 772.921C893.428 761.521 892.469 750.465 894.122 739.753C895.774 729.042 899.612 719.881 905.634 712.272C911.606 704.5 918.989 699.237 927.784 696.483C936.578 693.728 945.645 693.84 954.983 696.817C964.27 699.631 972.647 704.966 980.115 712.821C987.582 720.676 993.102 730.304 996.672 741.705C1000.24 753.105 1001.2 764.161 999.549 774.873C997.896 785.584 994.084 794.826 988.112 802.598C982.09 810.207 974.681 815.389 965.887 818.143ZM964.05 812.28C971.054 810.087 974.506 804.266 974.409 794.818C974.474 785.319 971.472 770.879 965.402 751.498C959.332 732.117 953.561 718.544 948.089 710.779C942.779 702.964 936.623 700.152 929.62 702.346C922.617 704.539 919.082 710.385 919.017 719.884C919.115 729.332 922.198 743.747 928.268 763.128C934.338 782.509 940.028 796.107 945.337 803.923C950.809 811.688 957.047 814.474 964.05 812.28ZM1034.44 787.014L1043.73 784.107C1045.19 783.648 1046.09 783.098 1046.43 782.456C1046.88 781.6 1046.87 780.44 1046.41 778.974L1016.27 682.72C1015.81 681.254 1015.18 680.379 1014.37 680.095C1013.68 679.596 1012.6 679.577 1011.13 680.036L1001.85 682.943L1000.01 677.08L1041.54 664.073L1048.35 685.815L1049.65 685.677C1050.51 677.002 1052.78 669.676 1056.45 663.697C1060.23 657.504 1065.46 653.363 1072.14 651.271C1076.21 649.996 1079.87 649.388 1083.11 649.447C1086.29 649.343 1089.47 649.779 1092.64 650.754C1097.63 652.411 1102.08 655.488 1105.99 659.985C1110.06 664.432 1112.97 669.424 1114.7 674.961L1138.27 750.206C1138.73 751.671 1139.3 752.653 1140 753.152C1140.8 753.436 1141.94 753.349 1143.4 752.89L1152.69 749.983L1154.52 755.846L1101.26 772.525L1099.43 766.662L1107.25 764.214C1108.71 763.755 1109.61 763.204 1109.95 762.563C1110.4 761.707 1110.39 760.547 1109.93 759.081L1084.15 676.752C1080.22 664.211 1074.51 659.114 1067.02 661.461C1063.6 662.532 1060.73 665.934 1058.41 671.668C1056.09 677.401 1054.8 684.422 1054.54 692.73C1054.45 700.987 1055.73 709.35 1058.38 717.819L1074.75 770.099C1075.21 771.564 1075.79 772.547 1076.48 773.045C1077.28 773.33 1078.42 773.242 1079.88 772.783L1087.7 770.335L1089.54 776.198L1036.28 792.878L1034.44 787.014ZM1243.43 719.418L1260.53 714.062C1262.81 713.348 1264.23 712.456 1264.79 711.387C1265.29 710.154 1265.22 708.48 1264.55 706.362L1218.65 559.783C1217.93 557.503 1217.04 556.083 1215.97 555.524C1214.9 554.965 1213.23 555.042 1210.95 555.756L1193.85 561.112L1191.4 553.294L1277.39 526.362C1287 523.353 1296.52 522.339 1305.95 523.321C1315.54 524.251 1323.85 527.102 1330.89 531.872C1337.88 536.48 1342.62 542.774 1345.12 550.754C1348.49 561.504 1347.23 571.467 1341.34 580.643C1335.45 589.82 1327.21 597.767 1316.61 604.483L1317.07 605.949C1324.92 604.742 1333.01 604.89 1341.35 606.392C1349.8 607.679 1357.33 610.596 1363.95 615.143C1370.56 619.69 1375.11 625.954 1377.61 633.934C1380.72 643.869 1380.79 653.236 1377.83 662.034C1374.86 670.832 1369.56 678.482 1361.94 684.982C1354.43 691.268 1345.47 696.044 1335.04 699.308L1245.87 727.235L1243.43 719.418ZM1297.78 606.892C1306.58 604.138 1311.55 599.182 1312.71 592.024C1313.81 584.703 1312.4 574.772 1308.48 562.231C1305.16 551.645 1300.71 544.007 1295.13 539.317C1289.5 534.464 1283.42 533.058 1276.91 535.098L1258.83 540.76C1256.71 541.423 1255.29 542.315 1254.57 543.435C1254.01 544.504 1254.09 546.179 1254.8 548.459L1275.31 613.931L1297.78 606.892ZM1325.02 693.863C1333.65 691.159 1339.19 686.294 1341.64 679.268C1344.2 672.027 1343.16 660.997 1338.52 646.176C1333.88 631.355 1328.47 621.783 1322.29 617.46C1316.21 612.923 1308.86 612.006 1300.23 614.71L1277.76 621.749L1300.71 695.039C1301.37 697.156 1302.26 698.576 1303.38 699.298C1304.62 699.806 1306.29 699.729 1308.41 699.066L1325.02 693.863ZM1458.59 663.834C1454.52 665.109 1450.86 665.717 1447.63 665.658C1444.44 665.762 1441.26 665.326 1438.1 664.351C1433.11 662.694 1428.57 659.643 1424.5 655.196C1420.59 650.699 1417.76 645.681 1416.03 640.144L1392.46 564.9C1392 563.434 1391.37 562.559 1390.57 562.274C1389.87 561.776 1388.8 561.756 1387.33 562.215L1375.6 565.888L1373.77 560.025L1417.74 546.252L1446.59 638.353C1450.51 650.894 1456.22 655.991 1463.71 653.645C1467.13 652.573 1470 649.171 1472.32 643.438C1474.64 637.704 1475.85 630.709 1475.94 622.452C1476.2 614.144 1475.01 605.756 1472.35 597.287L1455.98 545.007C1455.52 543.541 1454.89 542.666 1454.08 542.381C1453.39 541.883 1452.31 541.863 1450.85 542.322L1439.12 545.995L1437.28 540.132L1481.26 526.359L1514.46 632.385C1514.92 633.851 1515.5 634.833 1516.19 635.331C1517 635.616 1518.13 635.529 1519.6 635.07L1528.88 632.162L1530.72 638.025L1489.19 651.032L1482.38 629.29L1481.08 629.428C1480.22 638.103 1477.9 645.537 1474.11 651.729C1470.44 657.708 1465.27 661.743 1458.59 663.834ZM1538.42 585.715L1543.8 584.031L1560.84 599.888C1574.48 612.606 1587.98 616.873 1601.33 612.691C1607.36 610.804 1611.38 607.935 1613.39 604.085C1615.35 600.073 1615.75 596.193 1614.57 592.448C1613.55 589.19 1611.79 586.702 1609.29 584.983C1606.89 583.05 1603.19 581.525 1598.19 580.408C1593.31 579.078 1585.88 577.647 1575.93 576.116C1563.92 574.331 1553.34 571.386 1544.19 567.278C1535.19 563.12 1529.09 555.91 1525.88 545.65C1522.71 535.552 1523.37 526.495 1527.83 518.48C1532.29 510.465 1539.09 505.029 1548.21 502.172C1555.86 499.775 1564.87 499.993 1575.24 502.827C1578.95 503.813 1581.69 504.025 1583.49 503.464C1585.44 502.852 1586.34 501.141 1586.17 498.331L1586.11 492.986L1590.5 491.608L1602.75 530.696L1597.37 532.38L1589.82 524.55C1582.67 517.132 1575.56 512.118 1568.48 509.505C1561.4 506.893 1554.93 506.505 1549.07 508.342C1544.67 509.719 1541.34 511.925 1539.07 514.961C1536.96 517.945 1536.65 521.799 1538.13 526.522C1541.14 536.131 1552.55 542.304 1572.36 545.04C1584.53 546.774 1594 548.727 1600.76 550.902C1607.68 553.025 1613.16 555.959 1617.2 559.703C1621.23 563.448 1624.29 568.658 1626.38 575.336C1629.55 585.434 1628.79 594.434 1624.11 602.338C1619.59 610.19 1612.53 615.621 1602.92 618.631C1594.78 621.181 1585.49 621.227 1575.07 618.77C1570.34 617.389 1567 617.004 1565.05 617.616C1562.93 618.279 1561.26 619.517 1560.04 621.33C1558.77 622.98 1558.11 624.884 1558.07 627.043L1557.97 632.709L1553.57 634.086L1538.42 585.715Z" fill="#F3F594"/>
<path d="M742.661 876.252L742.063 874.343L740.154 874.941L740.752 876.85L742.661 876.252ZM764.021 868.221L765.793 869.148L765.835 869.067L765.87 868.983L764.021 868.221ZM693.081 717.946L691.172 718.544L691.77 720.453L693.679 719.855L693.081 717.946ZM690.633 710.129L690.035 708.22L688.126 708.818L688.724 710.726L690.633 710.129ZM805.182 680.155L804.975 682.144L804.989 682.145L805.182 680.155ZM830.126 688.707L829.004 690.362L829.014 690.369L829.025 690.376L830.126 688.707ZM840.572 737.478L842.255 738.558L842.255 738.558L840.572 737.478ZM815.847 761.317L814.776 759.628L813.479 760.45L813.938 761.915L815.847 761.317ZM816.306 762.783L814.397 763.381L814.911 765.021L816.61 764.76L816.306 762.783ZM840.588 763.226L840.234 765.194L840.26 765.199L840.287 765.203L840.588 763.226ZM863.18 771.978L862.047 773.625L862.047 773.625L863.18 771.978ZM861.178 841.816L862.462 843.35L862.469 843.344L862.476 843.338L861.178 841.816ZM745.109 884.069L743.2 884.667L743.798 886.576L745.707 885.978L745.109 884.069ZM811.945 748.858L813.919 749.177L813.921 749.167L813.922 749.156L811.945 748.858ZM794.364 696.151L793.059 697.666L793.068 697.674L793.078 697.682L794.364 696.151ZM753.805 700.269L752.124 699.186L752.075 699.262L752.033 699.342L753.805 700.269ZM774.543 770.766L772.634 771.363L773.232 773.272L775.14 772.674L774.543 770.766ZM840.878 836.102L838.993 835.435L838.99 835.444L840.878 836.102ZM821.521 774.294L820.323 775.896L820.349 775.915L820.375 775.933L821.521 774.294ZM776.991 778.583L776.393 776.675L774.485 777.272L775.083 779.181L776.991 778.583ZM802.62 856.132L801.536 857.813L801.689 857.912L801.857 857.981L802.62 856.132ZM743.258 878.16L760.359 872.805L759.164 868.987L742.063 874.343L743.258 878.16ZM760.359 872.805C762.713 872.067 764.837 870.976 765.793 869.148L762.248 867.294C762.086 867.605 761.37 868.296 759.164 868.987L760.359 872.805ZM765.87 868.983C766.641 867.112 766.414 864.889 765.697 862.599L761.88 863.794C762.489 865.739 762.416 866.865 762.172 867.458L765.87 868.983ZM765.697 862.599L719.79 716.02L715.973 717.215L761.88 863.794L765.697 862.599ZM719.79 716.02C719.053 713.666 717.961 711.542 716.133 710.586L714.279 714.13C714.59 714.293 715.282 715.009 715.973 717.215L719.79 716.02ZM716.133 710.586C714.305 709.63 711.938 709.945 709.584 710.682L710.78 714.499C712.986 713.808 713.969 713.968 714.279 714.13L716.133 710.586ZM709.584 710.682L692.483 716.038L693.679 719.855L710.78 714.499L709.584 710.682ZM694.99 717.348L692.541 709.531L688.724 710.726L691.172 718.544L694.99 717.348ZM691.23 712.037L777.224 685.105L776.028 681.288L690.035 708.22L691.23 712.037ZM777.224 685.105C786.589 682.172 795.834 681.192 804.975 682.144L805.389 678.166C795.673 677.154 785.881 678.202 776.028 681.288L777.224 685.105ZM804.989 682.145C814.292 683.048 822.278 685.803 829.004 690.362L831.248 687.051C823.898 682.069 815.254 679.123 805.375 678.164L804.989 682.145ZM829.025 690.376C835.628 694.73 840.086 700.646 842.447 708.186L846.264 706.991C843.627 698.57 838.598 691.898 831.227 687.037L829.025 690.376ZM842.447 708.186C845.643 718.392 844.446 727.738 838.889 736.398L842.255 738.558C848.476 728.864 849.801 718.284 846.264 706.991L842.447 708.186ZM838.889 736.398C833.179 745.295 825.161 753.044 814.776 759.628L816.917 763.006C827.721 756.158 836.187 748.014 842.255 738.558L838.889 736.398ZM813.938 761.915L814.397 763.381L818.214 762.185L817.755 760.719L813.938 761.915ZM816.61 764.76C824.226 763.589 832.097 763.729 840.234 765.194L840.942 761.257C832.4 759.719 824.083 759.564 816.002 760.806L816.61 764.76ZM840.287 765.203C848.459 766.448 855.702 769.261 862.047 773.625L864.314 770.33C857.438 765.601 849.619 762.579 840.889 761.249L840.287 765.203ZM862.047 773.625C868.272 777.907 872.565 783.793 874.936 791.366L878.754 790.171C876.127 781.783 871.309 775.141 864.314 770.33L862.047 773.625ZM874.936 791.366C877.938 800.949 877.982 809.879 875.166 818.229L878.956 819.507C882.075 810.26 881.975 800.458 878.754 790.171L874.936 791.366ZM875.166 818.229C872.323 826.658 867.249 834.01 859.88 840.294L862.476 843.338C870.35 836.622 875.864 828.675 878.956 819.507L875.166 818.229ZM859.894 840.283C852.608 846.382 843.882 851.039 833.68 854.234L834.876 858.051C845.521 854.717 854.728 849.824 862.462 843.35L859.894 840.283ZM833.68 854.234L744.511 882.161L745.707 885.978L834.876 858.051L833.68 854.234ZM747.018 883.472L744.569 875.654L740.752 876.85L743.2 884.667L747.018 883.472ZM797.616 765.635C806.9 762.727 812.607 757.297 813.919 749.177L809.97 748.539C808.969 754.735 804.725 759.217 796.42 761.818L797.616 765.635ZM813.922 749.156C815.095 741.386 813.578 731.107 809.619 718.468L805.802 719.663C809.699 732.105 811.004 741.688 809.967 748.559L813.922 749.156ZM809.619 718.468C806.245 707.694 801.64 699.652 795.651 694.62L793.078 697.682C798.253 702.03 802.546 709.265 805.802 719.663L809.619 718.468ZM795.67 694.636C789.569 689.38 782.787 687.756 775.545 690.024L776.74 693.841C782.528 692.028 787.894 693.216 793.059 697.666L795.67 694.636ZM775.545 690.024L757.467 695.685L758.662 699.503L776.74 693.841L775.545 690.024ZM757.467 695.685C755.177 696.403 753.221 697.484 752.124 699.186L755.486 701.353C755.834 700.813 756.718 700.112 758.662 699.503L757.467 695.685ZM752.033 699.342C751.077 701.17 751.392 703.538 752.129 705.891L755.946 704.696C755.255 702.489 755.415 701.507 755.578 701.196L752.033 699.342ZM752.129 705.891L772.634 771.363L776.451 770.168L755.946 704.696L752.129 705.891ZM775.14 772.674L797.616 765.635L796.42 761.818L773.945 768.857L775.14 772.674ZM824.854 852.606C833.944 849.759 840.063 844.515 842.767 836.76L838.99 835.444C836.794 841.742 831.833 846.228 823.659 848.788L824.854 852.606ZM842.764 836.769C845.556 828.874 844.327 817.295 839.666 802.413L835.849 803.608C840.471 818.367 841.322 828.85 838.993 835.435L842.764 836.769ZM839.666 802.413C835.008 787.539 829.435 777.388 822.667 772.655L820.375 775.933C825.971 779.847 831.223 788.84 835.849 803.608L839.666 802.413ZM822.718 772.692C816.029 767.694 807.979 766.782 798.869 769.636L800.064 773.453C808.218 770.899 814.87 771.821 820.323 775.896L822.718 772.692ZM798.869 769.636L776.393 776.675L777.589 780.492L800.064 773.453L798.869 769.636ZM775.083 779.181L798.036 852.471L801.853 851.275L778.9 777.985L775.083 779.181ZM798.036 852.471C798.753 854.761 799.835 856.716 801.536 857.813L803.703 854.451C803.164 854.103 802.462 853.22 801.853 851.275L798.036 852.471ZM801.857 857.981C803.728 858.753 805.952 858.526 808.242 857.808L807.046 853.991C805.102 854.6 803.976 854.528 803.382 854.283L801.857 857.981ZM808.242 857.808L824.854 852.606L823.659 848.788L807.046 853.991L808.242 857.808ZM938.764 818.054L938.156 819.959L938.17 819.963L938.184 819.968L938.764 818.054ZM913.556 801.805L915.005 800.427L915.005 800.427L913.556 801.805ZM894.122 739.753L896.098 740.058L896.098 740.058L894.122 739.753ZM905.634 712.272L907.203 713.513L907.212 713.502L907.22 713.491L905.634 712.272ZM954.983 696.817L954.375 698.722L954.389 698.727L954.403 698.731L954.983 696.817ZM980.115 712.821L981.564 711.443L981.564 711.443L980.115 712.821ZM999.549 774.873L1001.53 775.178L1001.53 775.178L999.549 774.873ZM988.112 802.598L989.681 803.839L989.69 803.828L989.698 803.817L988.112 802.598ZM974.409 794.818L972.409 794.804L972.409 794.822L972.409 794.839L974.409 794.818ZM948.089 710.779L946.434 711.903L946.444 711.917L946.454 711.932L948.089 710.779ZM919.017 719.884L917.017 719.871L917.017 719.888L917.017 719.905L919.017 719.884ZM945.337 803.923L943.683 805.047L943.692 805.061L943.702 805.075L945.337 803.923ZM965.289 816.235C956.898 818.863 948.268 818.844 939.344 816.14L938.184 819.968C947.834 822.892 957.286 822.933 966.484 820.052L965.289 816.235ZM939.372 816.148C930.387 813.284 922.266 808.065 915.005 800.427L912.106 803.183C919.78 811.256 928.465 816.869 938.156 819.959L939.372 816.148ZM915.005 800.427C907.769 792.815 902.395 783.463 898.907 772.324L895.09 773.519C898.742 785.181 904.407 795.084 912.106 803.183L915.005 800.427ZM898.907 772.324C895.418 761.185 894.497 750.438 896.098 740.058L892.145 739.448C890.441 750.492 891.437 761.857 895.09 773.519L898.907 772.324ZM896.098 740.058C897.704 729.648 901.419 720.82 907.203 713.513L904.066 711.031C897.805 718.942 893.844 728.435 892.145 739.448L896.098 740.058ZM907.22 713.491C912.958 706.023 920.005 701.015 928.381 698.391L927.186 694.574C917.973 697.459 910.254 702.977 904.048 711.054L907.22 713.491ZM928.381 698.391C936.758 695.768 945.403 695.862 954.375 698.722L955.59 694.911C945.887 691.817 936.399 691.689 927.186 694.574L928.381 698.391ZM954.403 698.731C963.321 701.433 971.408 706.565 978.665 714.199L981.564 711.443C973.886 703.367 965.218 697.829 955.563 694.903L954.403 698.731ZM978.665 714.199C985.901 721.811 991.275 731.163 994.764 742.302L998.581 741.107C994.928 729.445 989.263 719.542 981.564 711.443L978.665 714.199ZM994.764 742.302C998.252 753.441 999.174 764.188 997.572 774.568L1001.53 775.178C1003.23 764.134 1002.23 752.769 998.581 741.107L994.764 742.302ZM997.572 774.568C995.965 784.983 992.272 793.902 986.526 801.38L989.698 803.817C995.896 795.751 999.827 786.186 1001.53 775.178L997.572 774.568ZM986.544 801.357C980.757 808.669 973.68 813.607 965.289 816.235L966.484 820.052C975.683 817.171 983.423 811.746 989.681 803.839L986.544 801.357ZM964.648 814.189C968.577 812.958 971.612 810.662 973.612 807.29C975.586 803.964 976.46 799.749 976.409 794.798L972.409 794.839C972.455 799.335 971.652 802.755 970.172 805.249C968.72 807.698 966.526 809.409 963.453 810.372L964.648 814.189ZM976.409 794.832C976.476 785 973.388 770.307 967.31 750.9L963.493 752.096C969.555 771.451 972.472 785.638 972.409 794.804L976.409 794.832ZM967.31 750.9C961.232 731.494 955.387 717.664 949.724 709.627L946.454 711.932C951.734 719.424 957.431 732.74 963.493 752.096L967.31 750.9ZM949.743 709.656C946.961 705.559 943.838 702.596 940.32 700.99C936.754 699.361 932.952 699.207 929.022 700.437L930.218 704.254C933.292 703.292 936.069 703.446 938.659 704.628C941.297 705.833 943.908 708.184 946.434 711.903L949.743 709.656ZM929.022 700.437C925.093 701.668 922.044 703.968 920.005 707.341C917.993 710.669 917.051 714.895 917.017 719.871L921.017 719.898C921.048 715.374 921.907 711.927 923.428 709.41C924.924 706.937 927.144 705.217 930.218 704.254L929.022 700.437ZM917.017 719.905C917.118 729.667 920.283 744.321 926.36 763.726L930.177 762.53C924.114 743.172 921.111 728.997 921.017 719.864L917.017 719.905ZM926.36 763.726C932.437 783.13 938.197 796.971 943.683 805.047L946.992 802.799C941.859 795.244 936.24 781.888 930.177 762.53L926.36 763.726ZM943.702 805.075C946.569 809.142 949.752 812.076 953.304 813.662C956.903 815.269 960.719 815.42 964.648 814.189L963.453 810.372C960.379 811.334 957.574 811.188 954.935 810.01C952.249 808.81 949.578 806.469 946.972 802.771L943.702 805.075ZM1034.44 787.014L1033.85 785.106L1031.94 785.704L1032.54 787.612L1034.44 787.014ZM1046.43 782.456L1044.66 781.529L1044.66 781.529L1046.43 782.456ZM1014.37 680.095L1013.2 681.718L1013.44 681.885L1013.7 681.98L1014.37 680.095ZM1001.85 682.943L999.942 683.541L1000.54 685.449L1002.45 684.852L1001.85 682.943ZM1000.01 677.08L999.416 675.171L997.508 675.769L998.106 677.678L1000.01 677.08ZM1041.54 664.073L1043.45 663.475L1042.86 661.567L1040.95 662.164L1041.54 664.073ZM1048.35 685.815L1046.45 686.413L1046.94 687.978L1048.57 687.804L1048.35 685.815ZM1049.65 685.677L1049.86 687.666L1051.48 687.494L1051.64 685.875L1049.65 685.677ZM1056.45 663.697L1058.15 664.744L1058.16 664.74L1056.45 663.697ZM1083.11 649.447L1083.07 651.447L1083.12 651.448L1083.17 651.446L1083.11 649.447ZM1092.64 650.754L1093.27 648.856L1093.25 648.849L1093.22 648.843L1092.64 650.754ZM1105.99 659.985L1104.48 661.298L1104.5 661.318L1104.51 661.337L1105.99 659.985ZM1140 753.152L1138.83 754.775L1139.06 754.942L1139.33 755.037L1140 753.152ZM1152.69 749.983L1154.59 749.385L1154 747.476L1152.09 748.074L1152.69 749.983ZM1154.52 755.846L1155.12 757.754L1157.03 757.157L1156.43 755.248L1154.52 755.846ZM1101.26 772.525L1099.36 773.123L1099.95 775.032L1101.86 774.434L1101.26 772.525ZM1099.43 766.662L1098.83 764.754L1096.92 765.351L1097.52 767.26L1099.43 766.662ZM1109.95 762.563L1111.72 763.49L1111.72 763.49L1109.95 762.563ZM1058.41 671.668L1056.56 670.918L1056.56 670.918L1058.41 671.668ZM1054.54 692.73L1052.54 692.667L1052.54 692.687L1052.54 692.706L1054.54 692.73ZM1076.48 773.045L1075.31 774.668L1075.54 774.835L1075.81 774.93L1076.48 773.045ZM1087.7 770.335L1089.61 769.737L1089.01 767.828L1087.1 768.426L1087.7 770.335ZM1089.54 776.198L1090.14 778.107L1092.04 777.509L1091.45 775.6L1089.54 776.198ZM1036.28 792.878L1034.37 793.475L1034.97 795.384L1036.88 794.786L1036.28 792.878ZM1035.04 788.923L1044.33 786.016L1043.13 782.198L1033.85 785.106L1035.04 788.923ZM1044.33 786.016C1045.15 785.757 1045.91 785.446 1046.55 785.056C1047.17 784.674 1047.81 784.139 1048.2 783.383L1044.66 781.529C1044.72 781.414 1044.73 781.476 1044.46 781.643C1044.2 781.804 1043.77 781.998 1043.13 782.198L1044.33 786.016ZM1048.2 783.383C1049.01 781.844 1048.85 780.06 1048.32 778.376L1044.5 779.572C1044.89 780.82 1044.75 781.357 1044.66 781.529L1048.2 783.383ZM1048.32 778.376L1018.18 682.122L1014.36 683.318L1044.5 779.572L1048.32 778.376ZM1018.18 682.122C1017.67 680.515 1016.78 678.824 1015.04 678.209L1013.7 681.98C1013.63 681.955 1013.69 681.94 1013.83 682.135C1013.98 682.342 1014.17 682.711 1014.36 683.318L1018.18 682.122ZM1015.54 678.471C1014.04 677.394 1012.14 677.624 1010.54 678.127L1011.73 681.944C1012.34 681.754 1012.75 681.701 1013.01 681.706C1013.25 681.71 1013.27 681.763 1013.2 681.718L1015.54 678.471ZM1010.54 678.127L1001.25 681.034L1002.45 684.852L1011.73 681.944L1010.54 678.127ZM1003.76 682.345L1001.92 676.482L998.106 677.678L999.942 683.541L1003.76 682.345ZM1000.61 678.988L1042.14 665.981L1040.95 662.164L999.416 675.171L1000.61 678.988ZM1039.64 664.671L1046.45 686.413L1050.26 685.218L1043.45 663.475L1039.64 664.671ZM1048.57 687.804L1049.86 687.666L1049.44 683.688L1048.14 683.827L1048.57 687.804ZM1051.64 685.875C1052.48 677.429 1054.67 670.41 1058.15 664.744L1054.75 662.65C1050.88 668.942 1048.55 676.575 1047.66 685.48L1051.64 685.875ZM1058.16 664.74C1061.7 658.944 1066.54 655.121 1072.74 653.18L1071.54 649.363C1064.39 651.605 1058.77 656.065 1054.74 662.654L1058.16 664.74ZM1072.74 653.18C1076.67 651.95 1080.1 651.393 1083.07 651.447L1083.14 647.447C1079.63 647.383 1075.76 648.042 1071.54 649.363L1072.74 653.18ZM1083.17 651.446C1086.13 651.35 1089.08 651.753 1092.05 652.666L1093.22 648.843C1089.85 647.805 1086.46 647.337 1083.04 647.448L1083.17 651.446ZM1092.01 652.653C1096.61 654.182 1100.77 657.034 1104.48 661.298L1107.5 658.673C1103.38 653.942 1098.64 650.64 1093.27 648.856L1092.01 652.653ZM1104.51 661.337C1108.4 665.576 1111.15 670.313 1112.79 675.559L1116.61 674.364C1114.79 668.535 1111.73 663.288 1107.46 658.634L1104.51 661.337ZM1112.79 675.559L1136.36 750.803L1140.18 749.608L1116.61 674.364L1112.79 675.559ZM1136.36 750.803C1136.86 752.391 1137.6 753.891 1138.83 754.775L1141.16 751.529C1141.01 751.416 1140.6 750.951 1140.18 749.608L1136.36 750.803ZM1139.33 755.037C1140.76 755.542 1142.41 755.296 1144 754.799L1142.8 750.982C1141.46 751.402 1140.84 751.33 1140.66 751.266L1139.33 755.037ZM1144 754.799L1153.28 751.891L1152.09 748.074L1142.8 750.982L1144 754.799ZM1150.78 750.58L1152.61 756.444L1156.43 755.248L1154.59 749.385L1150.78 750.58ZM1153.92 753.937L1100.67 770.617L1101.86 774.434L1155.12 757.754L1153.92 753.937ZM1103.17 771.928L1101.34 766.064L1097.52 767.26L1099.36 773.123L1103.17 771.928ZM1100.03 768.571L1107.84 766.122L1106.65 762.305L1098.83 764.754L1100.03 768.571ZM1107.84 766.122C1108.67 765.864 1109.43 765.553 1110.06 765.163C1110.69 764.78 1111.32 764.246 1111.72 763.49L1108.18 761.636C1108.24 761.521 1108.25 761.583 1107.98 761.75C1107.71 761.911 1107.29 762.105 1106.65 762.305L1107.84 766.122ZM1111.72 763.49C1112.52 761.951 1112.37 760.167 1111.84 758.483L1108.02 759.679C1108.41 760.927 1108.27 761.464 1108.18 761.636L1111.72 763.49ZM1111.84 758.483L1086.05 676.154L1082.24 677.35L1108.02 759.679L1111.84 758.483ZM1086.05 676.154C1084.05 669.756 1081.5 664.937 1078.25 662.032C1074.85 659 1070.82 658.175 1066.42 659.552L1067.61 663.369C1070.71 662.4 1073.27 662.951 1075.59 665.016C1078.04 667.208 1080.31 671.207 1082.24 677.35L1086.05 676.154ZM1066.42 659.552C1062.12 660.898 1058.94 665.016 1056.56 670.918L1060.26 672.417C1062.51 666.852 1065.07 664.166 1067.61 663.369L1066.42 659.552ZM1056.56 670.918C1054.12 676.931 1052.81 684.2 1052.54 692.667L1056.54 692.792C1056.8 684.644 1058.06 677.871 1060.26 672.417L1056.56 670.918ZM1052.54 692.706C1052.44 701.189 1053.76 709.761 1056.47 718.416L1060.29 717.221C1057.69 708.938 1056.45 700.784 1056.54 692.753L1052.54 692.706ZM1056.47 718.416L1072.84 770.696L1076.66 769.501L1060.29 717.221L1056.47 718.416ZM1072.84 770.696C1073.34 772.285 1074.08 773.784 1075.31 774.668L1077.65 771.422C1077.49 771.309 1077.08 770.844 1076.66 769.501L1072.84 770.696ZM1075.81 774.93C1077.24 775.436 1078.89 775.189 1080.48 774.692L1079.29 770.875C1077.94 771.295 1077.33 771.223 1077.15 771.159L1075.81 774.93ZM1080.48 774.692L1088.3 772.243L1087.1 768.426L1079.29 770.875L1080.48 774.692ZM1085.79 770.933L1087.63 776.796L1091.45 775.6L1089.61 769.737L1085.79 770.933ZM1088.94 774.289L1035.68 790.969L1036.88 794.786L1090.14 778.107L1088.94 774.289ZM1038.19 792.28L1036.35 786.417L1032.54 787.612L1034.37 793.475L1038.19 792.28ZM1243.43 719.418L1242.83 717.509L1240.92 718.107L1241.52 720.015L1243.43 719.418ZM1264.79 711.387L1266.56 712.314L1266.6 712.233L1266.63 712.149L1264.79 711.387ZM1193.85 561.112L1191.94 561.71L1192.54 563.618L1194.44 563.021L1193.85 561.112ZM1191.4 553.294L1190.8 551.386L1188.89 551.984L1189.49 553.892L1191.4 553.294ZM1305.95 523.321L1305.74 525.31L1305.75 525.311L1305.95 523.321ZM1330.89 531.872L1329.77 533.528L1329.78 533.535L1329.79 533.542L1330.89 531.872ZM1341.34 580.643L1343.02 581.724L1343.02 581.724L1341.34 580.643ZM1316.61 604.483L1315.54 602.794L1314.24 603.616L1314.7 605.081L1316.61 604.483ZM1317.07 605.949L1315.16 606.546L1315.68 608.186L1317.37 607.925L1317.07 605.949ZM1341.35 606.392L1341 608.36L1341.03 608.365L1341.05 608.369L1341.35 606.392ZM1363.95 615.143L1362.81 616.791L1362.81 616.791L1363.95 615.143ZM1361.94 684.982L1363.23 686.516L1363.23 686.51L1363.24 686.504L1361.94 684.982ZM1245.87 727.235L1243.97 727.833L1244.56 729.742L1246.47 729.144L1245.87 727.235ZM1312.71 592.024L1314.68 592.342L1314.69 592.332L1314.69 592.322L1312.71 592.024ZM1295.13 539.317L1293.82 540.832L1293.83 540.84L1293.84 540.848L1295.13 539.317ZM1254.57 543.435L1252.89 542.351L1252.84 542.428L1252.8 542.508L1254.57 543.435ZM1275.31 613.931L1273.4 614.529L1274 616.438L1275.91 615.84L1275.31 613.931ZM1341.64 679.268L1339.76 678.601L1339.75 678.61L1341.64 679.268ZM1322.29 617.46L1321.09 619.062L1321.11 619.081L1321.14 619.099L1322.29 617.46ZM1277.76 621.749L1277.16 619.84L1275.25 620.438L1275.85 622.347L1277.76 621.749ZM1303.38 699.298L1302.3 700.979L1302.45 701.077L1302.62 701.147L1303.38 699.298ZM1244.02 721.326L1261.12 715.97L1259.93 712.153L1242.83 717.509L1244.02 721.326ZM1261.12 715.97C1263.48 715.233 1265.6 714.142 1266.56 712.314L1263.01 710.46C1262.85 710.77 1262.14 711.462 1259.93 712.153L1261.12 715.97ZM1266.63 712.149C1267.41 710.278 1267.18 708.055 1266.46 705.765L1262.64 706.96C1263.25 708.905 1263.18 710.031 1262.94 710.624L1266.63 712.149ZM1266.46 705.765L1220.55 559.185L1216.74 560.381L1262.64 706.96L1266.46 705.765ZM1220.55 559.185C1219.82 556.832 1218.73 554.708 1216.9 553.752L1215.04 557.296C1215.35 557.459 1216.05 558.174 1216.74 560.381L1220.55 559.185ZM1216.9 553.752C1215.07 552.796 1212.7 553.11 1210.35 553.848L1211.54 557.665C1213.75 556.974 1214.73 557.134 1215.04 557.296L1216.9 553.752ZM1210.35 553.848L1193.25 559.203L1194.44 563.021L1211.54 557.665L1210.35 553.848ZM1195.75 560.514L1193.31 552.697L1189.49 553.892L1191.94 561.71L1195.75 560.514ZM1192 555.203L1277.99 528.271L1276.79 524.454L1190.8 551.386L1192 555.203ZM1277.99 528.271C1287.35 525.338 1296.6 524.358 1305.74 525.31L1306.15 521.331C1296.44 520.32 1286.65 521.368 1276.79 524.454L1277.99 528.271ZM1305.75 525.311C1315.06 526.214 1323.04 528.969 1329.77 533.528L1332.01 530.217C1324.66 525.235 1316.02 522.288 1306.14 521.33L1305.75 525.311ZM1329.79 533.542C1336.39 537.896 1340.85 543.812 1343.21 551.352L1347.03 550.157C1344.39 541.736 1339.36 535.064 1331.99 530.203L1329.79 533.542ZM1343.21 551.352C1346.41 561.558 1345.21 570.903 1339.65 579.563L1343.02 581.724C1349.24 572.03 1350.57 561.449 1347.03 550.157L1343.21 551.352ZM1339.65 579.563C1333.94 588.461 1325.93 596.21 1315.54 602.794L1317.68 606.172C1328.49 599.323 1336.95 591.18 1343.02 581.724L1339.65 579.563ZM1314.7 605.081L1315.16 606.546L1318.98 605.351L1318.52 603.885L1314.7 605.081ZM1317.37 607.925C1324.99 606.755 1332.86 606.895 1341 608.36L1341.71 604.423C1333.17 602.885 1324.85 602.73 1316.77 603.972L1317.37 607.925ZM1341.05 608.369C1349.22 609.614 1356.47 612.427 1362.81 616.791L1365.08 613.495C1358.2 608.766 1350.38 605.745 1341.65 604.414L1341.05 608.369ZM1362.81 616.791C1369.04 621.073 1373.33 626.959 1375.7 634.532L1379.52 633.336C1376.89 624.949 1372.07 618.307 1365.08 613.495L1362.81 616.791ZM1375.7 634.532C1378.7 644.114 1378.75 653.045 1375.93 661.395L1379.72 662.673C1382.84 653.426 1382.74 643.623 1379.52 633.336L1375.7 634.532ZM1375.93 661.395C1373.09 669.823 1368.01 677.175 1360.64 683.46L1363.24 686.504C1371.11 679.788 1376.63 671.841 1379.72 662.673L1375.93 661.395ZM1360.66 683.448C1353.37 689.547 1344.65 694.205 1334.45 697.4L1335.64 701.217C1346.29 697.883 1355.49 692.989 1363.23 686.516L1360.66 683.448ZM1334.45 697.4L1245.28 725.327L1246.47 729.144L1335.64 701.217L1334.45 697.4ZM1247.78 726.637L1245.33 718.82L1241.52 720.015L1243.97 727.833L1247.78 726.637ZM1298.38 608.801C1307.67 605.893 1313.37 600.462 1314.68 592.342L1310.74 591.705C1309.73 597.901 1305.49 602.383 1297.19 604.984L1298.38 608.801ZM1314.69 592.322C1315.86 584.551 1314.34 574.272 1310.38 561.633L1306.57 562.829C1310.46 575.271 1311.77 584.854 1310.73 591.725L1314.69 592.322ZM1310.38 561.633C1307.01 550.859 1302.41 542.818 1296.42 537.785L1293.84 540.848C1299.02 545.196 1303.31 552.43 1306.57 562.829L1310.38 561.633ZM1296.43 537.802C1290.33 532.546 1283.55 530.921 1276.31 533.189L1277.51 537.007C1283.29 535.194 1288.66 536.382 1293.82 540.832L1296.43 537.802ZM1276.31 533.189L1258.23 538.851L1259.43 542.668L1277.51 537.007L1276.31 533.189ZM1258.23 538.851C1255.94 539.568 1253.99 540.65 1252.89 542.351L1256.25 544.519C1256.6 543.979 1257.48 543.277 1259.43 542.668L1258.23 538.851ZM1252.8 542.508C1251.84 544.336 1252.16 546.703 1252.89 549.057L1256.71 547.862C1256.02 545.655 1256.18 544.673 1256.34 544.362L1252.8 542.508ZM1252.89 549.057L1273.4 614.529L1277.22 613.334L1256.71 547.862L1252.89 549.057ZM1275.91 615.84L1298.38 608.801L1297.19 604.984L1274.71 612.023L1275.91 615.84ZM1325.62 695.771C1334.71 692.924 1340.83 687.681 1343.53 679.926L1339.75 678.61C1337.56 684.907 1332.6 689.394 1324.42 691.954L1325.62 695.771ZM1343.53 679.935C1346.32 672.04 1345.09 660.461 1340.43 645.578L1336.61 646.774C1341.24 661.533 1342.09 672.015 1339.76 678.601L1343.53 679.935ZM1340.43 645.578C1335.77 630.705 1330.2 620.554 1323.43 615.821L1321.14 619.099C1326.74 623.012 1331.99 632.005 1336.61 646.774L1340.43 645.578ZM1323.48 615.858C1316.79 610.86 1308.74 609.948 1299.63 612.801L1300.83 616.618C1308.98 614.065 1315.64 614.987 1321.09 619.062L1323.48 615.858ZM1299.63 612.801L1277.16 619.84L1278.35 623.658L1300.83 616.618L1299.63 612.801ZM1275.85 622.347L1298.8 695.636L1302.62 694.441L1279.66 621.151L1275.85 622.347ZM1298.8 695.636C1299.52 697.926 1300.6 699.882 1302.3 700.979L1304.47 697.617C1303.93 697.269 1303.23 696.385 1302.62 694.441L1298.8 695.636ZM1302.62 701.147C1304.49 701.918 1306.72 701.691 1309.01 700.974L1307.81 697.157C1305.87 697.766 1304.74 697.694 1304.15 697.449L1302.62 701.147ZM1309.01 700.974L1325.62 695.771L1324.42 691.954L1307.81 697.157L1309.01 700.974ZM1447.63 665.658L1447.66 663.659L1447.61 663.658L1447.56 663.659L1447.63 665.658ZM1438.1 664.351L1437.47 666.249L1437.49 666.256L1437.51 666.262L1438.1 664.351ZM1424.5 655.196L1422.99 656.509L1423.01 656.529L1423.02 656.548L1424.5 655.196ZM1390.57 562.274L1389.4 563.898L1389.63 564.064L1389.9 564.16L1390.57 562.274ZM1375.6 565.888L1373.69 566.486L1374.29 568.394L1376.2 567.796L1375.6 565.888ZM1373.77 560.025L1373.17 558.116L1371.26 558.714L1371.86 560.622L1373.77 560.025ZM1417.74 546.252L1419.65 545.655L1419.05 543.746L1417.14 544.344L1417.74 546.252ZM1472.32 643.438L1470.47 642.688L1470.47 642.688L1472.32 643.438ZM1475.94 622.452L1473.94 622.39L1473.94 622.409L1473.94 622.429L1475.94 622.452ZM1454.08 542.381L1452.92 544.005L1453.15 544.171L1453.42 544.267L1454.08 542.381ZM1439.12 545.995L1437.21 546.592L1437.81 548.501L1439.72 547.903L1439.12 545.995ZM1437.28 540.132L1436.69 538.223L1434.78 538.821L1435.38 540.729L1437.28 540.132ZM1481.26 526.359L1483.17 525.762L1482.57 523.853L1480.66 524.451L1481.26 526.359ZM1516.19 635.331L1515.02 636.955L1515.26 637.122L1515.52 637.217L1516.19 635.331ZM1528.88 632.162L1530.79 631.565L1530.19 629.656L1528.28 630.254L1528.88 632.162ZM1530.72 638.025L1531.31 639.934L1533.22 639.336L1532.63 637.428L1530.72 638.025ZM1489.19 651.032L1487.28 651.63L1487.88 653.539L1489.78 652.941L1489.19 651.032ZM1482.38 629.29L1484.29 628.692L1483.8 627.127L1482.16 627.301L1482.38 629.29ZM1481.08 629.428L1480.87 627.439L1479.25 627.612L1479.09 629.231L1481.08 629.428ZM1474.11 651.729L1475.82 652.776L1475.82 652.772L1474.11 651.729ZM1457.99 661.925C1454.06 663.156 1450.63 663.713 1447.66 663.659L1447.59 667.658C1451.1 667.722 1454.97 667.063 1459.19 665.743L1457.99 661.925ZM1447.56 663.659C1444.6 663.756 1441.65 663.352 1438.68 662.439L1437.51 666.262C1440.88 667.3 1444.27 667.769 1447.69 667.657L1447.56 663.659ZM1438.73 662.453C1434.1 660.919 1429.85 658.078 1425.97 653.845L1423.02 656.548C1427.29 661.208 1432.11 664.47 1437.47 666.249L1438.73 662.453ZM1426.01 653.884C1422.27 649.589 1419.59 644.813 1417.94 639.546L1414.12 640.742C1415.94 646.55 1418.9 651.809 1422.99 656.509L1426.01 653.884ZM1417.94 639.546L1394.37 564.302L1390.55 565.498L1414.12 640.742L1417.94 639.546ZM1394.37 564.302C1393.87 562.695 1392.97 561.004 1391.23 560.389L1389.9 564.16C1389.83 564.134 1389.88 564.119 1390.02 564.315C1390.17 564.521 1390.36 564.89 1390.55 565.498L1394.37 564.302ZM1391.74 560.651C1390.24 559.573 1388.34 559.803 1386.73 560.307L1387.93 564.124C1388.53 563.934 1388.95 563.881 1389.2 563.885C1389.44 563.89 1389.46 563.942 1389.4 563.898L1391.74 560.651ZM1386.73 560.307L1375.01 563.979L1376.2 567.796L1387.93 564.124L1386.73 560.307ZM1377.51 565.29L1375.68 559.427L1371.86 560.622L1373.69 566.486L1377.51 565.29ZM1374.36 561.933L1418.34 548.161L1417.14 544.344L1373.17 558.116L1374.36 561.933ZM1415.83 546.85L1444.68 638.951L1448.49 637.755L1419.65 545.655L1415.83 546.85ZM1444.68 638.951C1446.68 645.349 1449.23 650.168 1452.48 653.074C1455.88 656.105 1459.92 656.93 1464.31 655.553L1463.12 651.736C1460.02 652.705 1457.46 652.155 1455.15 650.09C1452.69 647.898 1450.42 643.898 1448.49 637.755L1444.68 638.951ZM1464.31 655.553C1468.61 654.208 1471.79 650.089 1474.18 644.187L1470.47 642.688C1468.22 648.253 1465.66 650.939 1463.12 651.736L1464.31 655.553ZM1474.18 644.187C1476.61 638.16 1477.84 630.903 1477.94 622.476L1473.94 622.429C1473.85 630.515 1472.67 637.249 1470.47 642.688L1474.18 644.187ZM1477.94 622.515C1478.21 613.968 1476.98 605.357 1474.26 596.689L1470.44 597.884C1473.04 606.155 1474.2 614.32 1473.94 622.39L1477.94 622.515ZM1474.26 596.689L1457.89 544.409L1454.07 545.604L1470.44 597.884L1474.26 596.689ZM1457.89 544.409C1457.39 542.802 1456.49 541.111 1454.75 540.496L1453.42 544.267C1453.35 544.241 1453.4 544.226 1453.54 544.422C1453.69 544.628 1453.88 544.997 1454.07 545.604L1457.89 544.409ZM1455.25 540.758C1453.76 539.68 1451.86 539.91 1450.25 540.414L1451.44 544.231C1452.05 544.041 1452.46 543.988 1452.72 543.992C1452.96 543.997 1452.98 544.049 1452.92 544.005L1455.25 540.758ZM1450.25 540.414L1438.52 544.086L1439.72 547.903L1451.44 544.231L1450.25 540.414ZM1441.03 545.397L1439.19 539.534L1435.38 540.729L1437.21 546.592L1441.03 545.397ZM1437.88 542.04L1481.86 528.268L1480.66 524.451L1436.69 538.223L1437.88 542.04ZM1479.35 526.957L1512.56 632.983L1516.37 631.787L1483.17 525.762L1479.35 526.957ZM1512.56 632.983C1513.05 634.571 1513.79 636.07 1515.02 636.955L1517.36 633.708C1517.2 633.596 1516.79 633.131 1516.37 631.787L1512.56 632.983ZM1515.52 637.217C1516.95 637.722 1518.61 637.476 1520.2 636.978L1519 633.161C1517.66 633.582 1517.04 633.51 1516.86 633.446L1515.52 637.217ZM1520.2 636.978L1529.48 634.071L1528.28 630.254L1519 633.161L1520.2 636.978ZM1526.97 632.76L1528.81 638.623L1532.63 637.428L1530.79 631.565L1526.97 632.76ZM1530.12 636.117L1488.59 649.124L1489.78 652.941L1531.31 639.934L1530.12 636.117ZM1491.09 650.435L1484.29 628.692L1480.47 629.888L1487.28 651.63L1491.09 650.435ZM1482.16 627.301L1480.87 627.439L1481.29 631.417L1482.59 631.279L1482.16 627.301ZM1479.09 629.231C1478.25 637.666 1476 644.797 1472.41 650.686L1475.82 652.772C1479.79 646.276 1482.19 638.54 1483.07 629.625L1479.09 629.231ZM1472.41 650.682C1468.99 656.251 1464.21 659.979 1457.99 661.925L1459.19 665.743C1466.33 663.507 1471.89 659.165 1475.82 652.776L1472.41 650.682ZM1538.42 585.715L1537.83 583.806L1535.92 584.404L1536.52 586.312L1538.42 585.715ZM1543.8 584.031L1545.16 582.567L1544.31 581.775L1543.2 582.123L1543.8 584.031ZM1560.84 599.888L1562.2 598.425L1562.2 598.424L1560.84 599.888ZM1613.39 604.085L1615.16 605.012L1615.17 604.988L1615.19 604.964L1613.39 604.085ZM1609.29 584.983L1608.03 586.539L1608.09 586.588L1608.15 586.632L1609.29 584.983ZM1598.19 580.408L1597.67 582.338L1597.71 582.35L1597.76 582.36L1598.19 580.408ZM1575.93 576.116L1576.23 574.139L1576.22 574.138L1575.93 576.116ZM1544.19 567.278L1543.35 569.093L1543.36 569.098L1543.37 569.103L1544.19 567.278ZM1527.83 518.48L1526.08 517.507L1526.08 517.507L1527.83 518.48ZM1575.24 502.827L1574.71 504.757L1574.72 504.76L1575.24 502.827ZM1586.17 498.331L1584.17 498.355L1584.17 498.401L1584.17 498.448L1586.17 498.331ZM1586.11 492.986L1585.51 491.077L1584.09 491.522L1584.11 493.01L1586.11 492.986ZM1590.5 491.608L1592.41 491.011L1591.81 489.102L1589.91 489.7L1590.5 491.608ZM1602.75 530.696L1603.34 532.605L1605.25 532.007L1604.65 530.099L1602.75 530.696ZM1597.37 532.38L1595.93 533.768L1596.79 534.658L1597.97 534.288L1597.37 532.38ZM1568.48 509.505L1569.17 507.629L1569.17 507.629L1568.48 509.505ZM1539.07 514.961L1537.47 513.763L1537.45 513.785L1537.43 513.808L1539.07 514.961ZM1572.36 545.04L1572.65 543.06L1572.64 543.059L1572.36 545.04ZM1600.76 550.902L1600.15 552.806L1600.16 552.81L1600.17 552.814L1600.76 550.902ZM1617.2 559.703L1618.56 558.237L1618.56 558.237L1617.2 559.703ZM1624.11 602.338L1622.39 601.319L1622.38 601.33L1622.38 601.341L1624.11 602.338ZM1575.07 618.77L1574.51 620.69L1574.56 620.705L1574.61 620.717L1575.07 618.77ZM1560.04 621.33L1561.63 622.551L1561.66 622.5L1561.7 622.447L1560.04 621.33ZM1558.07 627.043L1556.08 627.006L1556.08 627.006L1558.07 627.043ZM1557.97 632.709L1558.57 634.617L1559.95 634.186L1559.97 632.745L1557.97 632.709ZM1553.57 634.086L1551.67 634.684L1552.26 636.592L1554.17 635.994L1553.57 634.086ZM1539.02 587.623L1544.4 585.94L1543.2 582.123L1537.83 583.806L1539.02 587.623ZM1542.44 585.496L1559.47 601.352L1562.2 598.424L1545.16 582.567L1542.44 585.496ZM1559.47 601.351C1573.44 614.373 1587.66 619.068 1601.93 614.599L1600.73 610.782C1588.29 614.679 1575.52 610.839 1562.2 598.425L1559.47 601.351ZM1601.93 614.599C1608.23 612.626 1612.81 609.509 1615.16 605.012L1611.62 603.158C1609.94 606.361 1606.48 608.982 1600.73 610.782L1601.93 614.599ZM1615.19 604.964C1617.34 600.56 1617.83 596.152 1616.48 591.85L1612.67 593.045C1613.66 596.235 1613.36 599.585 1611.59 603.207L1615.19 604.964ZM1616.48 591.85C1615.35 588.22 1613.34 585.338 1610.42 583.334L1608.15 586.632C1610.24 588.067 1611.76 590.16 1612.67 593.045L1616.48 591.85ZM1610.54 583.427C1607.8 581.213 1603.76 579.601 1598.63 578.457L1597.76 582.36C1602.63 583.449 1605.98 584.887 1608.03 586.539L1610.54 583.427ZM1598.72 578.479C1593.72 577.117 1586.21 575.673 1576.23 574.139L1575.62 578.093C1585.56 579.621 1592.9 581.038 1597.67 582.338L1598.72 578.479ZM1576.22 574.138C1564.36 572.375 1553.96 569.472 1545 565.453L1543.37 569.103C1552.72 573.299 1563.48 576.288 1575.63 578.094L1576.22 574.138ZM1545.03 565.463C1536.59 561.563 1530.85 554.825 1527.79 545.052L1523.97 546.247C1527.33 556.995 1533.79 564.676 1543.35 569.093L1545.03 565.463ZM1527.79 545.052C1524.76 535.39 1525.42 526.915 1529.58 519.453L1526.08 517.507C1521.31 526.076 1520.67 535.714 1523.97 546.247L1527.79 545.052ZM1529.58 519.453C1533.78 511.906 1540.15 506.791 1548.81 504.081L1547.61 500.264C1538.02 503.266 1530.81 509.024 1526.08 517.507L1529.58 519.453ZM1548.81 504.081C1555.99 501.831 1564.59 501.99 1574.71 504.757L1575.77 500.898C1565.15 497.997 1555.73 497.719 1547.61 500.264L1548.81 504.081ZM1574.72 504.76C1578.49 505.76 1581.71 506.114 1584.08 505.372L1582.89 501.555C1581.67 501.935 1579.4 501.865 1575.75 500.895L1574.72 504.76ZM1584.08 505.372C1585.53 504.918 1586.69 504.005 1587.4 502.648C1588.07 501.357 1588.26 499.825 1588.17 498.214L1584.17 498.448C1584.24 499.646 1584.07 500.375 1583.85 500.794C1583.66 501.149 1583.39 501.397 1582.89 501.555L1584.08 505.372ZM1588.17 498.307L1588.11 492.962L1584.11 493.01L1584.17 498.355L1588.17 498.307ZM1586.7 494.894L1591.1 493.517L1589.91 489.7L1585.51 491.077L1586.7 494.894ZM1588.59 492.206L1600.84 531.294L1604.65 530.099L1592.41 491.011L1588.59 492.206ZM1602.15 528.788L1596.77 530.471L1597.97 534.288L1603.34 532.605L1602.15 528.788ZM1598.81 530.991L1591.26 523.162L1588.38 525.938L1595.93 533.768L1598.81 530.991ZM1591.26 523.162C1583.97 515.602 1576.61 510.376 1569.17 507.629L1567.79 511.382C1574.5 513.859 1581.37 518.662 1588.38 525.938L1591.26 523.162ZM1569.17 507.629C1561.77 504.9 1554.84 504.437 1548.47 506.433L1549.66 510.25C1555.02 508.574 1561.03 508.887 1567.79 511.382L1569.17 507.629ZM1548.47 506.433C1543.76 507.908 1540.04 510.324 1537.47 513.763L1540.67 516.158C1542.64 513.527 1545.58 511.53 1549.66 510.25L1548.47 506.433ZM1537.43 513.808C1534.85 517.468 1534.63 522.029 1536.22 527.12L1540.04 525.924C1538.67 521.569 1539.07 518.422 1540.7 516.114L1537.43 513.808ZM1536.22 527.12C1537.92 532.553 1541.97 536.858 1547.99 540.117C1553.99 543.362 1562.06 545.636 1572.09 547.021L1572.64 543.059C1562.85 541.708 1555.31 539.527 1549.9 536.599C1544.51 533.686 1541.34 530.1 1540.04 525.924L1536.22 527.12ZM1572.08 547.02C1584.21 548.747 1593.54 550.682 1600.15 552.806L1601.37 548.998C1594.45 546.773 1584.86 544.8 1572.65 543.06L1572.08 547.02ZM1600.17 552.814C1606.89 554.876 1612.08 557.685 1615.83 561.169L1618.56 558.237C1614.24 554.234 1608.47 551.175 1601.34 548.99L1600.17 552.814ZM1615.83 561.169C1619.55 564.621 1622.46 569.5 1624.47 575.934L1628.29 574.738C1626.12 567.817 1622.91 562.274 1618.56 558.237L1615.83 561.169ZM1624.47 575.934C1627.5 585.581 1626.73 593.979 1622.39 601.319L1625.83 603.356C1630.84 594.889 1631.6 585.286 1628.29 574.738L1624.47 575.934ZM1622.38 601.341C1618.14 608.707 1611.51 613.845 1602.32 616.722L1603.52 620.539C1613.55 617.398 1621.05 611.673 1625.84 603.335L1622.38 601.341ZM1602.32 616.722C1594.6 619.141 1585.69 619.219 1575.53 616.824L1574.61 620.717C1585.3 623.236 1594.96 623.221 1603.52 620.539L1602.32 616.722ZM1575.63 616.851C1573.2 616.141 1571.07 615.668 1569.25 615.458C1567.46 615.252 1565.81 615.281 1564.45 615.707L1565.65 619.524C1566.24 619.339 1567.24 619.254 1568.79 619.432C1570.31 619.607 1572.21 620.018 1574.51 620.69L1575.63 616.851ZM1564.45 615.707C1561.91 616.504 1559.86 618.017 1558.38 620.213L1561.7 622.447C1562.66 621.017 1563.95 620.054 1565.65 619.524L1564.45 615.707ZM1558.46 620.109C1556.91 622.112 1556.12 624.435 1556.08 627.006L1560.07 627.079C1560.11 625.333 1560.63 623.848 1561.63 622.551L1558.46 620.109ZM1556.08 627.006L1555.97 632.672L1559.97 632.745L1560.07 627.079L1556.08 627.006ZM1557.37 630.8L1552.98 632.177L1554.17 635.994L1558.57 634.617L1557.37 630.8ZM1555.48 633.488L1540.33 585.117L1536.52 586.312L1551.67 634.684L1555.48 633.488Z" fill="#4480FC"/>
</g>
<defs>
<clipPath id="clip0_1_2">
<rect width="2085" height="1346" fill="transparent" fill-opacity="0"/>
</clipPath>
</defs>
</svg>
