<svg xmlns="http://www.w3.org/2000/svg" viewBox="0 0 288 95.12"><defs><style>.cls-1{fill:#212529}.cls-2{fill:#F3F594}.cls-3{fill:#212529}</style></defs><title>Asset 3</title><g id="Layer_2" data-name="Layer 2"><g id="Layer_1-2" data-name="Layer 1"><path class="cls-1" d="M32.27 42.29c26.86-7.66 71-13.95 107.73-13.95 38.57 0 90.15 6.58 116.92 17 22.66 8.84 28 16.7 29.68 30.92a34.08 34.08 0 0 0 .08-6c-2.46-12.5-9.52-24-29.76-31.87C230.14 28 178.57 22.8 140 22.8c-36.71 0-81.49 3-107.73 12.56-21.6 7.87-28.76 19.18-31.12 31.76a48.94 48.94 0 0 0 0 9.76c.15 1.92 2.08-26.31 31.12-34.59z"/><path class="cls-2" d="M32.27 35.36C58.51 25.81 103.29 22.8 140 22.8c38.57 0 90.15 5.2 116.92 15.64 20.25 7.9 27.3 19.38 29.76 31.87q.44 2.23.7 4.5a31.62 31.62 0 0 0 .62-6.18c0-19.92.3-40.75-31.09-53C230.14 5.2 178.57 0 140 0 103.29 0 58.51 3 32.27 12.56-1.39 24.82 0 45.44 0 66.18a36.18 36.18 0 0 0 .46 5.71c.16-1.61.39-3.19.68-4.76 2.37-12.59 9.53-23.9 31.13-31.77z"/><path class="cls-3" d="M256 14.72c-6.51-2.42-14.85-4.24-23.76-6.06 2.14 6.28 9 12.7 18 17.16 10.32 5.1 20.44 5.86 26.57 2.39-4.53-5.09-10.81-9.77-20.81-13.49zM33.64 11.82C21.28 16.1 13.36 21.5 8.71 27.56c5.93 4.11 17.5 3.64 28.38-1.73 10-4.94 17.35-12.57 18.64-19.39a160.8 160.8 0 0 0-22.09 5.38zM44.48 83.12a"/></g></g></svg>